<svg width="32" height="32" viewBox="0 0 32 32" fill="none" xmlns="http://www.w3.org/2000/svg">
<path d="M30.7074 10.7071L26.7074 14.7071C26.5198 14.8947 26.2653 15.0001 25.9999 15.0001C25.7346 15.0001 25.4801 14.8947 25.2924 14.7071C25.1048 14.5194 24.9994 14.2649 24.9994 13.9996C24.9994 13.7342 25.1048 13.4797 25.2924 13.2921L27.5862 10.9996H25.9999C21.1662 10.9996 20.1762 13.3746 18.9224 16.3846C17.6312 19.4846 16.1662 22.9996 9.99994 22.9996H9.87494C9.63154 23.9422 9.05271 24.7638 8.24693 25.3102C7.44115 25.8566 6.46375 26.0904 5.49794 25.9677C4.53212 25.845 3.6442 25.3743 3.00061 24.6438C2.35703 23.9133 2.00195 22.9732 2.00195 21.9996C2.00195 21.026 2.35703 20.0859 3.00061 19.3553C3.6442 18.6248 4.53212 18.1541 5.49794 18.0315C6.46375 17.9088 7.44115 18.1426 8.24693 18.689C9.05271 19.2354 9.63154 20.0569 9.87494 20.9996H9.99994C14.8337 20.9996 15.8237 18.6246 17.0774 15.6146C18.3749 12.5146 19.8337 8.99958 25.9999 8.99958H27.5862L25.2924 6.70708C25.1048 6.51944 24.9994 6.26494 24.9994 5.99958C24.9994 5.73422 25.1048 5.47972 25.2924 5.29208C25.4801 5.10444 25.7346 4.99902 25.9999 4.99902C26.2653 4.99902 26.5198 5.10444 26.7074 5.29208L30.7074 9.29208C30.8004 9.38495 30.8742 9.49524 30.9245 9.61664C30.9748 9.73804 31.0007 9.86816 31.0007 9.99958C31.0007 10.131 30.9748 10.2611 30.9245 10.3825C30.8742 10.5039 30.8004 10.6142 30.7074 10.7071Z" fill="#9A9A9A"/>
</svg>
