<svg width="32" height="32" viewBox="0 0 32 32" fill="none" xmlns="http://www.w3.org/2000/svg">
<path d="M11.9993 6.66699C9.52399 6.66699 7.15002 7.65032 5.39969 9.40066C3.64935 11.151 2.66602 13.525 2.66602 16.0003C2.66602 18.4757 3.64935 20.8496 5.39969 22.6C7.15002 24.3503 9.52399 25.3337 11.9993 25.3337C13.386 25.3337 14.746 25.0137 15.9993 24.427C17.2527 25.0137 18.6127 25.3337 19.9993 25.3337C22.4747 25.3337 24.8487 24.3503 26.599 22.6C28.3493 20.8496 29.3327 18.4757 29.3327 16.0003C29.3327 13.525 28.3493 11.151 26.599 9.40066C24.8487 7.65032 22.4747 6.66699 19.9993 6.66699C18.6127 6.66699 17.2527 6.98699 15.9993 7.57366C14.746 6.98699 13.386 6.66699 11.9993 6.66699ZM11.9993 9.33366C12.4527 9.33366 12.8927 9.37366 13.3327 9.46699C11.626 11.2137 10.666 13.5603 10.666 16.0003C10.666 18.4403 11.626 20.787 13.3327 22.5203C12.8927 22.6137 12.4527 22.667 11.9993 22.667C10.2312 22.667 8.53555 21.9646 7.2853 20.7144C6.03506 19.4641 5.33268 17.7684 5.33268 16.0003C5.33268 14.2322 6.03506 12.5365 7.2853 11.2863C8.53555 10.036 10.2312 9.33366 11.9993 9.33366ZM19.9993 9.33366C21.7675 9.33366 23.4632 10.036 24.7134 11.2863C25.9636 12.5365 26.666 14.2322 26.666 16.0003C26.666 17.7684 25.9636 19.4641 24.7134 20.7144C23.4632 21.9646 21.7675 22.667 19.9993 22.667C19.546 22.667 19.106 22.627 18.666 22.5337C20.3727 20.787 21.3327 18.4403 21.3327 16.0003C21.3327 13.5603 20.3727 11.2137 18.666 9.48033C19.106 9.38699 19.546 9.33366 19.9993 9.33366Z" fill="#9A9A9A"/>
</svg>
