<svg width="633" height="301" viewBox="0 0 633 301" fill="none" xmlns="http://www.w3.org/2000/svg">
<path fill-rule="evenodd" clip-rule="evenodd" d="M88.4466 89.9998H121.88L152.208 44.5737H26.159L0 86.0337L39.8273 155.011L78.8383 222.579C85.1379 233.481 88.6561 241.861 103.589 241.861C118.521 241.861 122.039 233.488 128.332 222.587L167.35 155.011L210.053 81.0417C225.866 53.6546 239.152 29.251 254.503 1.62546L204.389 0L178.656 44.5737L174.632 51.5451L170.608 58.5165L152.432 89.9926L148.328 97.1013L103.589 174.596L54.7454 89.9926H88.4466V89.9998Z" fill="white"/>
<path d="M200.531 141.169C211.88 129.668 225.96 123.918 242.756 123.918C257.891 123.918 270.83 129.632 281.579 141.061C292.329 152.49 297.697 166.151 297.697 182.037L296.787 193.386H215.058C218.844 207.914 229.211 215.182 246.159 215.182C257.963 215.182 268.33 212.61 277.259 207.467L288.609 230.396C275.287 238.112 260.99 241.977 245.704 241.977C228.301 241.977 213.578 236.79 201.549 226.423C189.514 216.056 183.503 201.637 183.503 183.171C183.503 166.671 189.181 152.678 200.531 141.169ZM267.955 171.36C266.741 164.851 263.642 159.707 258.65 155.921C253.658 152.136 247.755 150.243 240.943 150.243C235.041 150.243 229.666 152.136 224.826 155.921C219.985 159.707 216.576 164.851 214.611 171.36H267.962H267.955Z" fill="white"/>
<path d="M305.644 126.186H336.065V140.946C344.691 129.596 356.495 123.918 371.478 123.918C386.461 123.918 397.132 128.498 403.034 137.651C408.936 146.804 411.891 160.01 411.891 177.269V239.701H381.245V180.672C381.245 170.832 380.032 163.832 377.612 159.671C375.192 155.51 369.896 153.429 361.718 153.429C354.003 153.429 347.797 156.153 343.101 161.6C338.413 167.047 336.065 174.163 336.065 182.94V239.694H305.644V126.179V126.186Z" fill="white"/>
<path d="M418.703 217.674L455.027 171.59L472.054 152.973H420.748V126.186H510.422V147.981L474.554 192.251L456.161 212.913H512.236V239.7H418.703V217.681V217.674Z" fill="white"/>
<path d="M530.173 140.938C539.861 129.588 552.496 123.91 568.086 123.91C582.159 123.91 593.516 129.661 602.142 141.162V126.179H632.563V239.693H602.142V224.934C593.516 236.284 582.159 241.962 568.086 241.962C552.496 241.962 539.861 236.284 530.173 224.934C520.486 213.585 515.646 199.584 515.646 182.932C515.646 166.28 520.486 152.287 530.173 140.931V140.938ZM555.711 204.28C560.783 209.727 567.328 212.451 575.347 212.451C583.366 212.451 589.651 209.727 594.643 204.28C599.635 198.833 602.134 191.717 602.134 182.94C602.134 174.162 599.635 167.046 594.643 161.599C589.651 156.152 583.214 153.428 575.347 153.428C567.48 153.428 560.783 156.152 555.711 161.599C550.64 167.046 548.104 174.162 548.104 182.94C548.104 191.717 550.64 198.833 555.711 204.28Z" fill="white"/>
<path d="M94.6882 277.209H95.4612L106.774 299.98H105.301L102.837 295.024H87.305L84.8487 299.98H83.375L94.6882 277.209ZM102.173 293.731L96.971 283.191L95.0711 279.116C94.4353 280.568 93.8068 281.941 93.1711 283.227L87.9335 293.731H102.165H102.173Z" fill="white"/>
<path d="M115.841 280.299C118.138 278.002 120.897 276.854 124.134 276.854C127.37 276.854 129.957 277.944 132.254 280.119L131.235 281.137C129.27 279.172 126.901 278.183 124.134 278.183C121.367 278.183 118.882 279.201 116.874 281.239C114.872 283.276 113.868 285.725 113.868 288.586C113.868 291.447 114.872 293.896 116.874 295.933C118.875 297.97 121.295 298.989 124.134 298.989C125.868 298.989 127.472 298.584 128.945 297.775C130.419 296.966 131.64 295.875 132.601 294.488V288.867H126.735V287.531H134.01V294.943C132.933 296.583 131.524 297.891 129.791 298.859C128.057 299.834 126.171 300.318 124.134 300.318C120.897 300.318 118.138 299.169 115.841 296.872C113.543 294.575 112.395 291.815 112.395 288.578C112.395 285.342 113.543 282.582 115.841 280.285V280.299Z" fill="white"/>
<path d="M142.795 277.209H159.555V278.546H144.196V286.948H158.464V288.284H144.196V298.651H160.083V299.987H142.795V277.217V277.209ZM150.879 271.17H152.743L155.271 275.244H153.797L151.796 272.326L149.831 275.244H148.358L150.886 271.17H150.879Z" fill="white"/>
<path d="M185.316 277.209H186.725V299.98H185.497L169.228 279.665V299.98H167.819V277.209H168.946L185.324 297.661V277.209H185.316Z" fill="white"/>
<path d="M198.226 280.299C200.509 278.002 203.269 276.854 206.505 276.854C209.742 276.854 212.386 277.952 214.662 280.155L213.679 281.137C211.642 279.172 209.265 278.183 206.542 278.183C203.818 278.183 201.29 279.201 199.288 281.239C197.287 283.276 196.283 285.725 196.283 288.586C196.283 291.447 197.287 293.896 199.288 295.933C201.29 297.97 203.71 298.989 206.542 298.989C209.59 298.989 212.14 297.826 214.199 295.507L215.182 296.525C212.884 299.054 210.002 300.318 206.534 300.318C203.298 300.318 200.538 299.169 198.241 296.872C195.944 294.575 194.795 291.815 194.795 288.578C194.795 285.342 195.936 282.582 198.219 280.285L198.226 280.299Z" fill="white"/>
<path d="M222.211 277.209H223.62V299.98H222.211V277.209Z" fill="white"/>
<path d="M241.609 277.209H242.382L253.695 299.98H252.221L249.757 295.024H234.225L231.762 299.98H230.288L241.601 277.209H241.609ZM249.093 293.731L243.891 283.191L241.991 279.116C241.356 280.568 240.727 281.941 240.091 283.227L234.854 293.731H249.086H249.093Z" fill="white"/>
<path d="M271.61 277.209H279.94C283.429 277.209 286.261 278.307 288.428 280.496C290.596 282.685 291.679 285.387 291.679 288.594C291.679 291.802 290.596 294.504 288.428 296.693C286.261 298.882 283.429 299.98 279.94 299.98H271.61V277.209ZM279.767 298.651C282.88 298.651 285.401 297.704 287.323 295.804C289.245 293.904 290.206 291.506 290.206 288.602C290.206 285.698 289.245 283.292 287.323 281.399C285.401 279.499 282.88 278.553 279.767 278.553H273.019V298.651H279.767Z" fill="white"/>
<path d="M299.756 277.209H316.516V278.545H301.157V286.947H315.425V288.284H301.157V298.651H317.044V299.987H299.756V277.216V277.209Z" fill="white"/>
<path d="M339.641 282.835L337.423 279.743V299.986H336.015V277.215H337.243L347.61 291.483L357.976 277.215H359.205V299.986H357.796V279.743L355.585 282.835L347.61 293.802L339.634 282.835H339.641Z" fill="white"/>
<path d="M377.207 277.209H377.98L389.293 299.98H387.82L385.356 295.024H369.824L367.36 299.98H365.887L377.2 277.209H377.207ZM384.691 293.731L379.49 283.191L377.59 279.116C376.954 280.568 376.326 281.941 375.69 283.227L370.452 293.731H384.684H384.691Z" fill="white"/>
<path d="M395.969 277.208H405.036C407.918 277.208 410.215 278.01 411.92 279.614C413.632 281.218 414.485 283.219 414.485 285.603C414.485 287.409 413.972 289.013 412.953 290.414C411.935 291.823 410.512 292.813 408.684 293.398L414.485 299.972H412.585L407.21 293.824C406.625 293.918 405.065 293.961 402.536 293.961H397.371V299.972H395.962V277.201L395.969 277.208ZM405.317 292.639C407.542 292.639 409.385 291.96 410.837 290.602C412.289 289.244 413.018 287.582 413.018 285.61C413.018 283.638 412.296 281.94 410.858 280.582C409.413 279.224 407.586 278.545 405.361 278.545H397.385V292.639H405.325H405.317Z" fill="white"/>
<path d="M430.725 287.576L441.164 299.98H439.373L429.779 288.558L423.804 294.814V299.98H422.396V277.209H423.804V292.987L425.704 290.877L438.744 277.209H440.572L430.732 287.576H430.725Z" fill="white"/>
<path d="M447.832 277.209H464.592V278.545H449.234V286.947H463.501V288.284H449.234V298.651H465.12V299.987H447.832V277.216V277.209Z" fill="white"/>
<path d="M479.669 278.545H470.74V277.209H490V278.545H481.071V299.98H479.662V278.545H479.669Z" fill="white"/>
<path d="M497.029 277.209H498.438V299.98H497.029V277.209Z" fill="white"/>
<path d="M525.073 277.209H526.482V299.98H525.254L508.985 279.665V299.98H507.576V277.209H508.703L525.081 297.661V277.209H525.073Z" fill="white"/>
<path d="M538.005 280.299C540.302 278.002 543.062 276.854 546.298 276.854C549.534 276.854 552.121 277.944 554.418 280.119L553.399 281.137C551.434 279.172 549.065 278.183 546.298 278.183C543.531 278.183 541.046 279.201 539.045 281.239C537.044 283.276 536.04 285.725 536.04 288.586C536.04 291.447 537.044 293.896 539.045 295.933C541.046 297.97 543.466 298.989 546.298 298.989C548.032 298.989 549.636 298.584 551.109 297.775C552.583 296.966 553.804 295.875 554.765 294.488V288.867H548.899V287.531H556.174V294.943C555.097 296.583 553.688 297.891 551.955 298.859C550.221 299.834 548.335 300.318 546.298 300.318C543.062 300.318 540.302 299.169 538.005 296.872C535.707 294.575 534.559 291.815 534.559 288.578C534.559 285.342 535.707 282.582 538.005 280.285V280.299Z" fill="white"/>
</svg>
