<svg width="633" height="242" viewBox="0 0 633 242" fill="none" xmlns="http://www.w3.org/2000/svg">
<path fill-rule="evenodd" clip-rule="evenodd" d="M88.4466 89.9998H121.88L152.208 44.5737H26.159L0 86.0337L39.8273 155.011L78.8383 222.579C85.1379 233.481 88.6561 241.861 103.589 241.861C118.521 241.861 122.039 233.488 128.332 222.587L167.35 155.011L210.053 81.0417C225.866 53.6546 239.152 29.251 254.503 1.62546L204.389 0L178.656 44.5737L174.632 51.5451L170.608 58.5165L152.432 89.9926L148.328 97.1013L103.589 174.596L54.7454 89.9926H88.4466V89.9998Z" fill="white"/>
<path d="M200.531 141.169C211.88 129.668 225.96 123.918 242.756 123.918C257.891 123.918 270.83 129.632 281.579 141.061C292.329 152.49 297.697 166.151 297.697 182.037L296.787 193.386H215.058C218.844 207.914 229.211 215.182 246.159 215.182C257.963 215.182 268.33 212.61 277.259 207.467L288.609 230.396C275.287 238.112 260.99 241.977 245.704 241.977C228.301 241.977 213.578 236.79 201.549 226.423C189.514 216.056 183.503 201.637 183.503 183.171C183.503 166.671 189.181 152.678 200.531 141.169ZM267.955 171.36C266.741 164.851 263.642 159.707 258.65 155.921C253.658 152.136 247.755 150.243 240.943 150.243C235.041 150.243 229.666 152.136 224.826 155.921C219.985 159.707 216.576 164.851 214.611 171.36H267.962H267.955Z" fill="white"/>
<path d="M305.644 126.186H336.065V140.946C344.691 129.596 356.495 123.918 371.478 123.918C386.461 123.918 397.132 128.498 403.034 137.651C408.936 146.804 411.891 160.01 411.891 177.269V239.701H381.245V180.672C381.245 170.832 380.032 163.832 377.612 159.671C375.192 155.51 369.896 153.429 361.718 153.429C354.003 153.429 347.797 156.153 343.101 161.6C338.413 167.047 336.065 174.163 336.065 182.94V239.694H305.644V126.179V126.186Z" fill="white"/>
<path d="M418.703 217.674L455.027 171.59L472.054 152.973H420.748V126.186H510.422V147.981L474.554 192.251L456.161 212.913H512.236V239.7H418.703V217.681V217.674Z" fill="white"/>
<path d="M530.173 140.938C539.861 129.588 552.496 123.91 568.086 123.91C582.159 123.91 593.516 129.661 602.142 141.162V126.179H632.563V239.693H602.142V224.934C593.516 236.284 582.159 241.962 568.086 241.962C552.496 241.962 539.861 236.284 530.173 224.934C520.486 213.585 515.646 199.584 515.646 182.932C515.646 166.28 520.486 152.287 530.173 140.931V140.938ZM555.711 204.28C560.783 209.727 567.328 212.451 575.347 212.451C583.366 212.451 589.651 209.727 594.643 204.28C599.635 198.833 602.134 191.717 602.134 182.94C602.134 174.162 599.635 167.046 594.643 161.599C589.651 156.152 583.214 153.428 575.347 153.428C567.48 153.428 560.783 156.152 555.711 161.599C550.64 167.046 548.104 174.162 548.104 182.94C548.104 191.717 550.64 198.833 555.711 204.28Z" fill="white"/>
</svg>
