<svg width="1052" height="439" viewBox="0 0 1052 439" fill="none" xmlns="http://www.w3.org/2000/svg">
<path d="M46.6563 111.893V4.2571H111.196V15.8196H59.6904V52.1889H106.361V63.7514H59.6904V111.893H46.6563Z" fill="#171717"/>
<path d="M149.827 113.575C142.54 113.575 136.145 111.841 130.644 108.372C125.178 104.903 120.904 100.051 117.82 93.8139C114.772 87.5772 113.248 80.2893 113.248 71.9503C113.248 63.5412 114.772 56.2008 117.82 49.929C120.904 43.6572 125.178 38.7869 130.644 35.3182C136.145 31.8494 142.54 30.1151 149.827 30.1151C157.115 30.1151 163.492 31.8494 168.958 35.3182C174.459 38.7869 178.734 43.6572 181.782 49.929C184.865 56.2008 186.407 63.5412 186.407 71.9503C186.407 80.2893 184.865 87.5772 181.782 93.8139C178.734 100.051 174.459 104.903 168.958 108.372C163.492 111.841 157.115 113.575 149.827 113.575ZM149.827 102.433C155.363 102.433 159.918 101.014 163.492 98.1761C167.066 95.3381 169.711 91.6065 171.428 86.9815C173.145 82.3565 174.004 77.3461 174.004 71.9503C174.004 66.5545 173.145 61.5265 171.428 56.8665C169.711 52.2064 167.066 48.4399 163.492 45.5668C159.918 42.6937 155.363 41.2571 149.827 41.2571C144.291 41.2571 139.737 42.6937 136.163 45.5668C132.589 48.4399 129.943 52.2064 128.227 56.8665C126.51 61.5265 125.651 66.5545 125.651 71.9503C125.651 77.3461 126.51 82.3565 128.227 86.9815C129.943 91.6065 132.589 95.3381 136.163 98.1761C139.737 101.014 144.291 102.433 149.827 102.433Z" fill="#171717"/>
<path d="M196.461 111.893V31.1662H208.444V43.3594H209.284C210.756 39.3651 213.419 36.1241 217.273 33.6364C221.127 31.1487 225.472 29.9048 230.307 29.9048C231.218 29.9048 232.357 29.9223 233.723 29.9574C235.09 29.9924 236.123 30.045 236.824 30.1151V42.7287C236.404 42.6236 235.44 42.4659 233.934 42.2557C232.462 42.0104 230.903 41.8878 229.256 41.8878C225.332 41.8878 221.828 42.7112 218.745 44.358C215.696 45.9697 213.279 48.2121 211.492 51.0852C209.74 53.9233 208.864 57.1643 208.864 60.8082V111.893H196.461Z" fill="#171717"/>
<path d="M266.403 113.786C261.287 113.786 256.645 112.822 252.475 110.895C248.306 108.933 244.995 106.112 242.542 102.433C240.089 98.7192 238.863 94.2344 238.863 88.9787C238.863 84.3537 239.774 80.6046 241.596 77.7315C243.418 74.8234 245.853 72.5459 248.901 70.8991C251.95 69.2524 255.313 68.026 258.992 67.2202C262.706 66.3793 266.438 65.7135 270.187 65.223C275.092 64.5923 279.069 64.1193 282.117 63.804C285.2 63.4536 287.443 62.8755 288.844 62.0696C290.281 61.2637 290.999 59.8622 290.999 57.8651V57.4446C290.999 52.259 289.58 48.2296 286.742 45.3565C283.939 42.4834 279.682 41.0469 273.971 41.0469C268.049 41.0469 263.407 42.3433 260.043 44.9361C256.68 47.5289 254.315 50.2969 252.948 53.2401L241.175 49.0355C243.278 44.1302 246.081 40.3111 249.584 37.5781C253.123 34.8101 256.977 32.883 261.147 31.7969C265.352 30.6757 269.486 30.1151 273.55 30.1151C276.143 30.1151 279.121 30.4304 282.485 31.0611C285.884 31.6567 289.16 32.9006 292.313 34.7926C295.502 36.6847 298.147 39.5402 300.249 43.3594C302.352 47.1785 303.403 52.294 303.403 58.706V111.893H290.999V100.962H290.369C289.528 102.714 288.126 104.588 286.164 106.585C284.202 108.582 281.592 110.282 278.333 111.683C275.075 113.085 271.098 113.786 266.403 113.786ZM268.295 102.643C273.2 102.643 277.334 101.68 280.698 99.7528C284.097 97.8258 286.655 95.3381 288.371 92.2898C290.123 89.2415 290.999 86.0355 290.999 82.6719V71.3196C290.474 71.9503 289.317 72.5284 287.531 73.054C285.779 73.5445 283.746 73.9825 281.434 74.3679C279.156 74.7183 276.932 75.0336 274.759 75.3139C272.622 75.5592 270.887 75.7694 269.556 75.9446C266.333 76.3651 263.319 77.0483 260.516 77.9943C257.748 78.9053 255.506 80.2893 253.789 82.1463C252.107 83.9683 251.266 86.456 251.266 89.6094C251.266 93.919 252.861 97.1776 256.049 99.3849C259.272 101.557 263.354 102.643 268.295 102.643Z" fill="#171717"/>
<path d="M380.389 113.575C373.662 113.575 367.723 111.876 362.573 108.477C357.422 105.044 353.393 100.208 350.485 93.9716C347.577 87.6998 346.122 80.2893 346.122 71.7401C346.122 63.2609 347.577 55.9029 350.485 49.6662C353.393 43.4294 357.44 38.6117 362.625 35.2131C367.811 31.8144 373.802 30.1151 380.6 30.1151C385.855 30.1151 390.007 30.991 393.056 32.7429C396.139 34.4598 398.487 36.4219 400.098 38.6293C401.745 40.8016 403.024 42.5885 403.935 43.9901H404.986V4.2571H417.389V111.893H405.407V99.4901H403.935C403.024 100.962 401.728 102.819 400.046 105.061C398.364 107.268 395.964 109.248 392.845 111C389.727 112.717 385.575 113.575 380.389 113.575ZM382.071 102.433C387.047 102.433 391.251 101.137 394.685 98.544C398.119 95.9162 400.729 92.2898 402.516 87.6648C404.303 83.0047 405.196 77.6264 405.196 71.5298C405.196 65.5033 404.32 60.2301 402.568 55.7102C400.817 51.1553 398.224 47.6165 394.79 45.0938C391.356 42.536 387.117 41.2571 382.071 41.2571C376.816 41.2571 372.436 42.6061 368.932 45.304C365.463 47.9669 362.853 51.5933 361.101 56.1832C359.384 60.7382 358.526 65.8537 358.526 71.5298C358.526 77.276 359.402 82.4967 361.154 87.1918C362.941 91.8518 365.568 95.5658 369.037 98.3338C372.541 101.067 376.886 102.433 382.071 102.433Z" fill="#171717"/>
<path d="M465.744 113.575C458.456 113.575 452.062 111.841 446.561 108.372C441.095 104.903 436.82 100.051 433.737 93.8139C430.688 87.5772 429.164 80.2893 429.164 71.9503C429.164 63.5412 430.688 56.2008 433.737 49.929C436.82 43.6572 441.095 38.7869 446.561 35.3182C452.062 31.8494 458.456 30.1151 465.744 30.1151C473.032 30.1151 479.409 31.8494 484.875 35.3182C490.375 38.7869 494.65 43.6572 497.698 49.929C500.782 56.2008 502.323 63.5412 502.323 71.9503C502.323 80.2893 500.782 87.5772 497.698 93.8139C494.65 100.051 490.375 104.903 484.875 108.372C479.409 111.841 473.032 113.575 465.744 113.575ZM465.744 102.433C471.28 102.433 475.835 101.014 479.409 98.1761C482.982 95.3381 485.628 91.6065 487.345 86.9815C489.062 82.3565 489.92 77.3461 489.92 71.9503C489.92 66.5545 489.062 61.5265 487.345 56.8665C485.628 52.2064 482.982 48.4399 479.409 45.5668C475.835 42.6937 471.28 41.2571 465.744 41.2571C460.208 41.2571 455.653 42.6937 452.079 45.5668C448.505 48.4399 445.86 52.2064 444.143 56.8665C442.426 61.5265 441.568 66.5545 441.568 71.9503C441.568 77.3461 442.426 82.3565 444.143 86.9815C445.86 91.6065 448.505 95.3381 452.079 98.1761C455.653 101.014 460.208 102.433 465.744 102.433Z" fill="#171717"/>
<path d="M535.754 111.893V4.2571H578.22C586.383 4.2571 593.339 5.81629 599.085 8.93466C604.831 12.018 609.211 16.3101 612.224 21.8111C615.272 27.277 616.796 33.5838 616.796 40.7315C616.796 47.8793 615.255 54.1861 612.171 59.652C609.088 65.1179 604.621 69.375 598.769 72.4233C592.953 75.4716 585.91 76.9957 577.641 76.9957H550.575V58.7585H573.963C578.342 58.7585 581.951 58.0052 584.789 56.4986C587.662 54.9569 589.8 52.8371 591.201 50.1392C592.638 47.4063 593.356 44.2704 593.356 40.7315C593.356 37.1577 592.638 34.0393 591.201 31.3764C589.8 28.6785 587.662 26.5937 584.789 25.1222C581.916 23.6155 578.272 22.8622 573.857 22.8622H558.511V111.893H535.754Z" fill="#171717"/>
<path d="M643.129 113.418C637.979 113.418 633.389 112.524 629.36 110.737C625.33 108.915 622.142 106.235 619.794 102.696C617.482 99.1222 616.326 94.6723 616.326 89.3466C616.326 84.8617 617.149 81.0952 618.796 78.0469C620.442 74.9986 622.685 72.5459 625.523 70.6889C628.361 68.8319 631.584 67.4304 635.193 66.4844C638.837 65.5384 642.656 64.8726 646.651 64.4872C651.346 63.9967 655.13 63.5412 658.003 63.1207C660.876 62.6652 662.961 61.9995 664.257 61.1236C665.554 60.2476 666.202 58.9512 666.202 57.2344V56.919C666.202 53.5904 665.151 51.0152 663.048 49.1932C660.981 47.3712 658.038 46.4602 654.219 46.4602C650.19 46.4602 646.984 47.3537 644.601 49.1406C642.218 50.8925 640.642 53.0999 639.871 55.7628L619.164 54.081C620.215 49.1757 622.282 44.9361 625.365 41.3622C628.449 37.7533 632.425 34.9853 637.296 33.0582C642.201 31.0961 647.877 30.1151 654.324 30.1151C658.809 30.1151 663.101 30.6406 667.201 31.6918C671.335 32.7429 674.996 34.3722 678.185 36.5795C681.408 38.7869 683.949 41.625 685.806 45.0938C687.663 48.5275 688.591 52.6444 688.591 57.4446V111.893H667.358V100.699H666.727C665.431 103.222 663.697 105.446 661.524 107.374C659.352 109.266 656.742 110.755 653.693 111.841C650.645 112.892 647.124 113.418 643.129 113.418ZM649.541 97.9659C652.835 97.9659 655.743 97.3177 658.266 96.0213C660.789 94.6899 662.768 92.9029 664.205 90.6605C665.641 88.4181 666.36 85.8778 666.36 83.0398V74.473C665.659 74.9285 664.695 75.349 663.469 75.7344C662.278 76.0848 660.929 76.4176 659.422 76.733C657.915 77.0133 656.409 77.276 654.902 77.5213C653.396 77.7315 652.029 77.9242 650.803 78.0994C648.175 78.4849 645.88 79.098 643.918 79.9389C641.956 80.7798 640.432 81.9186 639.345 83.3551C638.259 84.7566 637.716 86.5085 637.716 88.6108C637.716 91.6591 638.82 93.9891 641.027 95.6009C643.27 97.1776 646.108 97.9659 649.541 97.9659Z" fill="#171717"/>
<path d="M726.828 113.207C720.697 113.207 715.143 111.631 710.168 108.477C705.227 105.289 701.303 100.611 698.395 94.4446C695.522 88.2429 694.085 80.6397 694.085 71.6349C694.085 62.3849 695.575 54.6941 698.553 48.5625C701.531 42.3958 705.49 37.7884 710.431 34.7401C715.406 31.6567 720.854 30.1151 726.776 30.1151C731.296 30.1151 735.062 30.8859 738.075 32.4276C741.124 33.9342 743.576 35.8262 745.433 38.1037C747.325 40.3461 748.762 42.5535 749.743 44.7258H750.426V4.2571H772.763V111.893H750.689V98.9645H749.743C748.692 101.207 747.203 103.432 745.276 105.639C743.384 107.812 740.914 109.616 737.865 111.053C734.852 112.489 731.173 113.207 726.828 113.207ZM733.923 95.3906C737.532 95.3906 740.581 94.4096 743.068 92.4474C745.591 90.4503 747.518 87.6648 748.85 84.0909C750.216 80.517 750.899 76.33 750.899 71.5298C750.899 66.7296 750.234 62.5601 748.902 59.0213C747.571 55.4825 745.644 52.7495 743.121 50.8224C740.598 48.8954 737.532 47.9318 733.923 47.9318C730.244 47.9318 727.144 48.9304 724.621 50.9276C722.098 52.9247 720.189 55.6927 718.892 59.2315C717.596 62.7704 716.948 66.8698 716.948 71.5298C716.948 76.2249 717.596 80.3769 718.892 83.9858C720.224 87.5597 722.133 90.3627 724.621 92.3949C727.144 94.392 730.244 95.3906 733.923 95.3906Z" fill="#171717"/>
<path d="M782.291 111.893V31.1662H803.997V45.2514H804.838C806.309 40.241 808.78 36.4569 812.248 33.8992C815.717 31.3063 819.711 30.0099 824.231 30.0099C825.353 30.0099 826.561 30.08 827.858 30.2202C829.154 30.3603 830.293 30.553 831.274 30.7983V50.6648C830.223 50.3494 828.769 50.0691 826.912 49.8239C825.055 49.5786 823.355 49.456 821.814 49.456C818.52 49.456 815.577 50.1742 812.984 51.6108C810.426 53.0123 808.394 54.9744 806.888 57.4972C805.416 60.0199 804.68 62.928 804.68 66.2216V111.893H782.291Z" fill="#171717"/>
<path d="M854.677 113.418C849.526 113.418 844.936 112.524 840.907 110.737C836.878 108.915 833.689 106.235 831.342 102.696C829.029 99.1222 827.873 94.6723 827.873 89.3466C827.873 84.8617 828.696 81.0952 830.343 78.0469C831.99 74.9986 834.232 72.5459 837.07 70.6889C839.909 68.8319 843.132 67.4304 846.741 66.4844C850.385 65.5384 854.204 64.8726 858.198 64.4872C862.893 63.9967 866.677 63.5412 869.551 63.1207C872.424 62.6652 874.508 61.9995 875.805 61.1236C877.101 60.2476 877.749 58.9512 877.749 57.2344V56.919C877.749 53.5904 876.698 51.0152 874.596 49.1932C872.529 47.3712 869.586 46.4602 865.766 46.4602C861.737 46.4602 858.531 47.3537 856.149 49.1406C853.766 50.8925 852.189 53.0999 851.418 55.7628L830.711 54.081C831.762 49.1757 833.829 44.9361 836.913 41.3622C839.996 37.7533 843.973 34.9853 848.843 33.0582C853.748 31.0961 859.425 30.1151 865.872 30.1151C870.356 30.1151 874.649 30.6406 878.748 31.6918C882.882 32.7429 886.544 34.3722 889.732 36.5795C892.956 38.7869 895.496 41.625 897.353 45.0938C899.21 48.5275 900.139 52.6444 900.139 57.4446V111.893H878.906V100.699H878.275C876.979 103.222 875.244 105.446 873.072 107.374C870.899 109.266 868.289 110.755 865.241 111.841C862.193 112.892 858.671 113.418 854.677 113.418ZM861.089 97.9659C864.382 97.9659 867.291 97.3177 869.813 96.0213C872.336 94.6899 874.316 92.9029 875.752 90.6605C877.189 88.4181 877.907 85.8778 877.907 83.0398V74.473C877.206 74.9285 876.243 75.349 875.016 75.7344C873.825 76.0848 872.476 76.4176 870.97 76.733C869.463 77.0133 867.956 77.276 866.45 77.5213C864.943 77.7315 863.577 77.9242 862.35 78.0994C859.722 78.4849 857.427 79.098 855.465 79.9389C853.503 80.7798 851.979 81.9186 850.893 83.3551C849.807 84.7566 849.264 86.5085 849.264 88.6108C849.264 91.6591 850.367 93.9891 852.575 95.6009C854.817 97.1776 857.655 97.9659 861.089 97.9659ZM851.681 21.233L839.225 21.0753C839.225 14.383 840.872 9.25 844.166 5.67613C847.494 2.10227 851.541 0.297822 856.306 0.262783C858.759 0.262783 860.861 0.665719 862.613 1.47159C864.4 2.24243 865.994 3.15341 867.396 4.20454C868.832 5.25568 870.199 6.18419 871.495 6.99006C872.792 7.76089 874.193 8.14631 875.7 8.14631C877.732 8.11127 879.274 7.35795 880.325 5.88636C881.411 4.37973 881.954 2.41761 881.954 0L894.2 0.367891C894.13 6.99005 892.448 12.1056 889.154 15.7145C885.861 19.2884 881.849 21.0928 877.119 21.1278C874.491 21.1278 872.283 20.7424 870.497 19.9716C868.745 19.1657 867.203 18.2547 865.872 17.2386C864.54 16.1875 863.244 15.259 861.982 14.4531C860.721 13.6473 859.302 13.2443 857.725 13.2443C855.903 13.2443 854.432 13.9626 853.31 15.3991C852.224 16.8357 851.681 18.7803 851.681 21.233Z" fill="#171717"/>
<path d="M945.103 113.47C936.939 113.47 929.879 111.736 923.923 108.267C918.001 104.763 913.429 99.893 910.205 93.6562C906.982 87.3845 905.37 80.1141 905.37 71.8452C905.37 63.5062 906.982 56.2183 910.205 49.9815C913.429 43.7098 918.001 38.8395 923.923 35.3707C929.879 31.8669 936.939 30.1151 945.103 30.1151C953.267 30.1151 960.309 31.8669 966.231 35.3707C972.187 38.8395 976.777 43.7098 980.001 49.9815C983.224 56.2183 984.836 63.5062 984.836 71.8452C984.836 80.1141 983.224 87.3845 980.001 93.6562C976.777 99.893 972.187 104.763 966.231 108.267C960.309 111.736 953.267 113.47 945.103 113.47ZM945.208 96.1264C948.922 96.1264 952.023 95.0753 954.511 92.973C956.998 90.8357 958.873 87.9276 960.134 84.2486C961.431 80.5696 962.079 76.3826 962.079 71.6875C962.079 66.9924 961.431 62.8054 960.134 59.1264C958.873 55.4474 956.998 52.5393 954.511 50.402C952.023 48.2647 948.922 47.196 945.208 47.196C941.459 47.196 938.306 48.2647 935.748 50.402C933.225 52.5393 931.316 55.4474 930.019 59.1264C928.758 62.8054 928.127 66.9924 928.127 71.6875C928.127 76.3826 928.758 80.5696 930.019 84.2486C931.316 87.9276 933.225 90.8357 935.748 92.973C938.306 95.0753 941.459 96.1264 945.208 96.1264Z" fill="#171717"/>
<path d="M1003.6 113.26C1000.13 113.26 997.154 112.034 994.666 109.581C992.214 107.093 990.987 104.115 990.987 100.646C990.987 97.2126 992.214 94.2694 994.666 91.8168C997.154 89.3641 1000.13 88.1378 1003.6 88.1378C1006.96 88.1378 1009.91 89.3641 1012.43 91.8168C1014.95 94.2694 1016.21 97.2126 1016.21 100.646C1016.21 102.959 1015.62 105.079 1014.43 107.006C1013.27 108.898 1011.75 110.422 1009.86 111.578C1007.96 112.699 1005.88 113.26 1003.6 113.26Z" fill="#171717"/>
<path d="M90.8182 185.893H77.7841C77.0133 182.144 75.6643 178.851 73.7372 176.013C71.8452 173.175 69.5327 170.792 66.7997 168.865C64.1018 166.903 61.1061 165.431 57.8125 164.45C54.5189 163.469 51.0852 162.979 47.5114 162.979C40.9943 162.979 35.0904 164.625 29.7997 167.919C24.544 171.213 20.357 176.065 17.2386 182.477C14.1553 188.889 12.6136 196.755 12.6136 206.075C12.6136 215.395 14.1553 223.261 17.2386 229.673C20.357 236.085 24.544 240.938 29.7997 244.232C35.0904 247.525 40.9943 249.172 47.5114 249.172C51.0852 249.172 54.5189 248.681 57.8125 247.7C61.1061 246.719 64.1018 245.265 66.7997 243.338C69.5327 241.376 71.8452 238.976 73.7372 236.138C75.6643 233.265 77.0133 229.971 77.7841 226.257H90.8182C89.8371 231.758 88.0502 236.681 85.4574 241.026C82.8646 245.37 79.6411 249.067 75.7869 252.115C71.9328 255.128 67.6056 257.423 62.8054 259C58.0402 260.577 52.9422 261.365 47.5114 261.365C38.3314 261.365 30.1676 259.123 23.0199 254.638C15.8722 250.153 10.2486 243.776 6.14915 235.507C2.04972 227.238 0 217.428 0 206.075C0 194.723 2.04972 184.912 6.14915 176.643C10.2486 168.375 15.8722 161.998 23.0199 157.513C30.1676 153.028 38.3314 150.786 47.5114 150.786C52.9422 150.786 58.0402 151.574 62.8054 153.151C67.6056 154.727 71.9328 157.04 75.7869 160.088C79.6411 163.101 82.8646 166.78 85.4574 171.125C88.0502 175.435 89.8371 180.357 90.8182 185.893Z" fill="#171717"/>
<path d="M134.114 261.575C126.826 261.575 120.432 259.841 114.931 256.372C109.465 252.903 105.19 248.051 102.107 241.814C99.0586 235.577 97.5344 228.289 97.5344 219.95C97.5344 211.541 99.0586 204.201 102.107 197.929C105.19 191.657 109.465 186.787 114.931 183.318C120.432 179.849 126.826 178.115 134.114 178.115C141.402 178.115 147.779 179.849 153.245 183.318C158.746 186.787 163.02 191.657 166.069 197.929C169.152 204.201 170.694 211.541 170.694 219.95C170.694 228.289 169.152 235.577 166.069 241.814C163.02 248.051 158.746 252.903 153.245 256.372C147.779 259.841 141.402 261.575 134.114 261.575ZM134.114 250.433C139.65 250.433 144.205 249.014 147.779 246.176C151.353 243.338 153.998 239.607 155.715 234.982C157.432 230.357 158.29 225.346 158.29 219.95C158.29 214.554 157.432 209.527 155.715 204.866C153.998 200.206 151.353 196.44 147.779 193.567C144.205 190.694 139.65 189.257 134.114 189.257C128.578 189.257 124.023 190.694 120.449 193.567C116.875 196.44 114.23 200.206 112.513 204.866C110.796 209.527 109.938 214.554 109.938 219.95C109.938 225.346 110.796 230.357 112.513 234.982C114.23 239.607 116.875 243.338 120.449 246.176C124.023 249.014 128.578 250.433 134.114 250.433Z" fill="#171717"/>
<path d="M193.151 211.331V259.893H180.747V179.166H192.73V191.78H193.781C195.673 187.68 198.546 184.387 202.401 181.899C206.255 179.376 211.23 178.115 217.327 178.115C222.793 178.115 227.575 179.236 231.675 181.479C235.774 183.686 238.963 187.05 241.24 191.57C243.517 196.054 244.656 201.731 244.656 208.598V259.893H232.253V209.439C232.253 203.097 230.606 198.157 227.312 194.618C224.019 191.044 219.499 189.257 213.753 189.257C209.794 189.257 206.255 190.116 203.136 191.832C200.053 193.549 197.618 196.054 195.831 199.348C194.044 202.642 193.151 206.636 193.151 211.331Z" fill="#171717"/>
<path d="M292.288 261.575C284.509 261.575 277.8 259.858 272.159 256.425C266.553 252.956 262.225 248.121 259.177 241.919C256.164 235.682 254.657 228.429 254.657 220.161C254.657 211.892 256.164 204.604 259.177 198.297C262.225 191.955 266.465 187.015 271.896 183.476C277.362 179.902 283.739 178.115 291.027 178.115C295.231 178.115 299.383 178.816 303.483 180.217C307.582 181.619 311.313 183.896 314.677 187.05C318.041 190.168 320.721 194.303 322.718 199.453C324.715 204.604 325.714 210.946 325.714 218.479V223.734H263.487V213.013H313.1C313.1 208.458 312.189 204.393 310.367 200.82C308.58 197.246 306.023 194.425 302.694 192.358C299.401 190.291 295.511 189.257 291.027 189.257C286.086 189.257 281.812 190.483 278.203 192.936C274.629 195.354 271.878 198.507 269.951 202.396C268.024 206.286 267.061 210.455 267.061 214.905V222.053C267.061 228.149 268.112 233.317 270.214 237.557C272.351 241.761 275.312 244.967 279.096 247.175C282.88 249.347 287.277 250.433 292.288 250.433C295.546 250.433 298.49 249.978 301.117 249.067C303.78 248.121 306.075 246.719 308.002 244.862C309.929 242.97 311.419 240.623 312.47 237.82L324.453 241.183C323.191 245.248 321.072 248.821 318.093 251.905C315.115 254.953 311.436 257.336 307.056 259.053C302.677 260.734 297.754 261.575 292.288 261.575Z" fill="#171717"/>
<path d="M368.497 261.575C360.929 261.575 354.412 259.788 348.946 256.214C343.48 252.641 339.276 247.718 336.333 241.446C333.389 235.174 331.918 228.009 331.918 219.95C331.918 211.751 333.424 204.516 336.438 198.244C339.486 191.938 343.726 187.015 349.156 183.476C354.622 179.902 360.999 178.115 368.287 178.115C373.963 178.115 379.079 179.166 383.634 181.268C388.189 183.371 391.92 186.314 394.828 190.098C397.737 193.882 399.541 198.297 400.242 203.342H387.838C386.892 199.663 384.79 196.405 381.531 193.567C378.308 190.694 373.963 189.257 368.497 189.257C363.662 189.257 359.423 190.518 355.779 193.041C352.17 195.529 349.349 199.05 347.317 203.605C345.32 208.125 344.321 213.433 344.321 219.53C344.321 225.767 345.302 231.197 347.264 235.822C349.262 240.447 352.065 244.039 355.674 246.597C359.317 249.154 363.592 250.433 368.497 250.433C371.721 250.433 374.647 249.873 377.274 248.751C379.902 247.63 382.127 246.018 383.949 243.916C385.771 241.814 387.067 239.291 387.838 236.348H400.242C399.541 241.113 397.807 245.405 395.039 249.224C392.306 253.009 388.679 256.022 384.159 258.264C379.674 260.472 374.454 261.575 368.497 261.575Z" fill="#171717"/>
<path d="M444.602 179.166V189.678H402.767V179.166H444.602ZM414.96 159.825H427.363V236.768C427.363 240.272 427.871 242.9 428.887 244.652C429.938 246.369 431.27 247.525 432.882 248.121C434.528 248.681 436.263 248.962 438.085 248.962C439.451 248.962 440.572 248.892 441.448 248.751C442.324 248.576 443.025 248.436 443.551 248.331L446.073 259.473C445.232 259.788 444.059 260.104 442.552 260.419C441.045 260.769 439.136 260.945 436.823 260.945C433.32 260.945 429.886 260.191 426.522 258.685C423.194 257.178 420.426 254.883 418.218 251.8C416.046 248.716 414.96 244.827 414.96 240.132V159.825Z" fill="#171717"/>
<path d="M478.135 261.786C473.02 261.786 468.377 260.822 464.208 258.895C460.038 256.933 456.727 254.112 454.274 250.433C451.822 246.719 450.595 242.234 450.595 236.979C450.595 232.354 451.506 228.605 453.328 225.732C455.15 222.823 457.585 220.546 460.634 218.899C463.682 217.252 467.046 216.026 470.725 215.22C474.439 214.379 478.17 213.714 481.919 213.223C486.825 212.592 490.801 212.119 493.85 211.804C496.933 211.454 499.175 210.875 500.577 210.07C502.013 209.264 502.732 207.862 502.732 205.865V205.445C502.732 200.259 501.313 196.23 498.475 193.357C495.672 190.483 491.414 189.047 485.703 189.047C479.782 189.047 475.139 190.343 471.776 192.936C468.412 195.529 466.047 198.297 464.681 201.24L452.908 197.036C455.01 192.13 457.813 188.311 461.317 185.578C464.856 182.81 468.71 180.883 472.879 179.797C477.084 178.676 481.218 178.115 485.283 178.115C487.876 178.115 490.854 178.43 494.218 179.061C497.616 179.657 500.892 180.901 504.046 182.793C507.234 184.685 509.879 187.54 511.982 191.359C514.084 195.179 515.135 200.294 515.135 206.706V259.893H502.732V248.962H502.101C501.26 250.714 499.859 252.588 497.896 254.585C495.934 256.582 493.324 258.282 490.066 259.683C486.807 261.085 482.83 261.786 478.135 261.786ZM480.027 250.643C484.932 250.643 489.067 249.68 492.431 247.753C495.829 245.826 498.387 243.338 500.104 240.29C501.856 237.241 502.732 234.036 502.732 230.672V219.32C502.206 219.95 501.05 220.528 499.263 221.054C497.511 221.545 495.479 221.982 493.166 222.368C490.889 222.718 488.664 223.034 486.492 223.314C484.354 223.559 482.62 223.769 481.289 223.945C478.065 224.365 475.052 225.048 472.249 225.994C469.481 226.905 467.238 228.289 465.521 230.146C463.84 231.968 462.999 234.456 462.999 237.609C462.999 241.919 464.593 245.178 467.781 247.385C471.005 249.557 475.087 250.643 480.027 250.643Z" fill="#171717"/>
<path d="M559.377 261.575C552.65 261.575 546.711 259.876 541.56 256.477C536.41 253.044 532.38 248.208 529.472 241.972C526.564 235.7 525.11 228.289 525.11 219.74C525.11 211.261 526.564 203.903 529.472 197.666C532.38 191.429 536.427 186.612 541.613 183.213C546.798 179.814 552.79 178.115 559.587 178.115C564.843 178.115 568.995 178.991 572.043 180.743C575.126 182.46 577.474 184.422 579.086 186.629C580.733 188.802 582.011 190.589 582.922 191.99H583.974V152.257H596.377V259.893H584.394V247.49H582.922C582.011 248.962 580.715 250.819 579.033 253.061C577.351 255.268 574.951 257.248 571.833 259C568.715 260.717 564.563 261.575 559.377 261.575ZM561.059 250.433C566.034 250.433 570.239 249.137 573.672 246.544C577.106 243.916 579.716 240.29 581.503 235.665C583.29 231.005 584.184 225.626 584.184 219.53C584.184 213.503 583.308 208.23 581.556 203.71C579.804 199.155 577.211 195.616 573.778 193.094C570.344 190.536 566.104 189.257 561.059 189.257C555.803 189.257 551.423 190.606 547.92 193.304C544.451 195.967 541.841 199.593 540.089 204.183C538.372 208.738 537.513 213.854 537.513 219.53C537.513 225.276 538.389 230.497 540.141 235.192C541.928 239.852 544.556 243.566 548.025 246.334C551.528 249.067 555.873 250.433 561.059 250.433Z" fill="#171717"/>
<path d="M644.731 261.575C637.443 261.575 631.049 259.841 625.548 256.372C620.082 252.903 615.808 248.051 612.724 241.814C609.676 235.577 608.152 228.289 608.152 219.95C608.152 211.541 609.676 204.201 612.724 197.929C615.808 191.657 620.082 186.787 625.548 183.318C631.049 179.849 637.443 178.115 644.731 178.115C652.019 178.115 658.396 179.849 663.862 183.318C669.363 186.787 673.638 191.657 676.686 197.929C679.769 204.201 681.311 211.541 681.311 219.95C681.311 228.289 679.769 235.577 676.686 241.814C673.638 248.051 669.363 252.903 663.862 256.372C658.396 259.841 652.019 261.575 644.731 261.575ZM644.731 250.433C650.267 250.433 654.822 249.014 658.396 246.176C661.97 243.338 664.615 239.607 666.332 234.982C668.049 230.357 668.907 225.346 668.907 219.95C668.907 214.554 668.049 209.527 666.332 204.866C664.615 200.206 661.97 196.44 658.396 193.567C654.822 190.694 650.267 189.257 644.731 189.257C639.195 189.257 634.64 190.694 631.067 193.567C627.493 196.44 624.847 200.206 623.13 204.866C621.414 209.527 620.555 214.554 620.555 219.95C620.555 225.346 621.414 230.357 623.13 234.982C624.847 239.607 627.493 243.338 631.067 246.176C634.64 249.014 639.195 250.433 644.731 250.433Z" fill="#171717"/>
<path d="M748.546 197.246L737.404 200.399C736.703 198.542 735.67 196.738 734.303 194.986C732.972 193.199 731.15 191.727 728.837 190.571C726.525 189.415 723.564 188.837 719.955 188.837C715.015 188.837 710.898 189.975 707.604 192.253C704.346 194.495 702.717 197.351 702.717 200.82C702.717 203.903 703.838 206.338 706.08 208.125C708.323 209.912 711.827 211.401 716.592 212.592L728.575 215.536C735.793 217.287 741.171 219.968 744.71 223.577C748.248 227.151 750.018 231.758 750.018 237.399C750.018 242.024 748.686 246.159 746.024 249.803C743.396 253.446 739.717 256.32 734.987 258.422C730.257 260.524 724.756 261.575 718.484 261.575C710.25 261.575 703.435 259.788 698.039 256.214C692.643 252.641 689.227 247.42 687.791 240.553L699.563 237.609C700.685 241.954 702.804 245.213 705.923 247.385C709.076 249.557 713.193 250.643 718.274 250.643C724.055 250.643 728.645 249.417 732.043 246.964C735.477 244.477 737.194 241.499 737.194 238.03C737.194 235.227 736.213 232.879 734.251 230.987C732.289 229.06 729.275 227.624 725.211 226.678L711.757 223.524C704.364 221.772 698.933 219.057 695.464 215.378C692.03 211.664 690.313 207.021 690.313 201.45C690.313 196.895 691.592 192.866 694.15 189.362C696.743 185.858 700.264 183.108 704.714 181.111C709.199 179.114 714.279 178.115 719.955 178.115C727.944 178.115 734.216 179.867 738.771 183.371C743.361 186.875 746.619 191.5 748.546 197.246Z" fill="#171717"/>
<path d="M825.349 261.575C817.781 261.575 811.264 259.788 805.798 256.214C800.332 252.641 796.128 247.718 793.184 241.446C790.241 235.174 788.77 228.009 788.77 219.95C788.77 211.751 790.276 204.516 793.289 198.244C796.338 191.938 800.577 187.015 806.008 183.476C811.474 179.902 817.851 178.115 825.139 178.115C830.815 178.115 835.931 179.166 840.485 181.268C845.04 183.371 848.772 186.314 851.68 190.098C854.588 193.882 856.393 198.297 857.093 203.342H844.69C843.744 199.663 841.642 196.405 838.383 193.567C835.16 190.694 830.815 189.257 825.349 189.257C820.514 189.257 816.274 190.518 812.63 193.041C809.021 195.529 806.201 199.05 804.169 203.605C802.172 208.125 801.173 213.433 801.173 219.53C801.173 225.767 802.154 231.197 804.116 235.822C806.113 240.447 808.916 244.039 812.525 246.597C816.169 249.154 820.444 250.433 825.349 250.433C828.573 250.433 831.498 249.873 834.126 248.751C836.754 247.63 838.979 246.018 840.801 243.916C842.623 241.814 843.919 239.291 844.69 236.348H857.093C856.393 241.113 854.658 245.405 851.89 249.224C849.157 253.009 845.531 256.022 841.011 258.264C836.526 260.472 831.306 261.575 825.349 261.575Z" fill="#171717"/>
<path d="M899.141 261.575C891.853 261.575 885.459 259.841 879.958 256.372C874.492 252.903 870.217 248.051 867.134 241.814C864.086 235.577 862.561 228.289 862.561 219.95C862.561 211.541 864.086 204.201 867.134 197.929C870.217 191.657 874.492 186.787 879.958 183.318C885.459 179.849 891.853 178.115 899.141 178.115C906.429 178.115 912.806 179.849 918.272 183.318C923.773 186.787 928.047 191.657 931.096 197.929C934.179 204.201 935.721 211.541 935.721 219.95C935.721 228.289 934.179 235.577 931.096 241.814C928.047 248.051 923.773 252.903 918.272 256.372C912.806 259.841 906.429 261.575 899.141 261.575ZM899.141 250.433C904.677 250.433 909.232 249.014 912.806 246.176C916.38 243.338 919.025 239.607 920.742 234.982C922.459 230.357 923.317 225.346 923.317 219.95C923.317 214.554 922.459 209.527 920.742 204.866C919.025 200.206 916.38 196.44 912.806 193.567C909.232 190.694 904.677 189.257 899.141 189.257C893.605 189.257 889.05 190.694 885.476 193.567C881.902 196.44 879.257 200.206 877.54 204.866C875.823 209.527 874.965 214.554 874.965 219.95C874.965 225.346 875.823 230.357 877.54 234.982C879.257 239.607 881.902 243.338 885.476 246.176C889.05 249.014 893.605 250.433 899.141 250.433Z" fill="#171717"/>
<path d="M945.774 259.893V179.166H957.757V191.78H958.808C960.49 187.47 963.205 184.124 966.955 181.741C970.704 179.324 975.206 178.115 980.462 178.115C985.787 178.115 990.22 179.324 993.758 181.741C997.332 184.124 1000.12 187.47 1002.12 191.78H1002.96C1005.02 187.61 1008.12 184.299 1012.26 181.847C1016.39 179.359 1021.35 178.115 1027.13 178.115C1034.35 178.115 1040.25 180.375 1044.84 184.895C1049.43 189.38 1051.73 196.37 1051.73 205.865V259.893H1039.33V205.865C1039.33 199.909 1037.7 195.652 1034.44 193.094C1031.18 190.536 1027.34 189.257 1022.93 189.257C1017.25 189.257 1012.85 190.974 1009.74 194.408C1006.62 197.806 1005.06 202.116 1005.06 207.337V259.893H992.445V204.604C992.445 200.014 990.955 196.317 987.977 193.514C984.999 190.676 981.162 189.257 976.467 189.257C973.244 189.257 970.231 190.116 967.428 191.832C964.66 193.549 962.417 195.932 960.7 198.98C959.018 201.993 958.178 205.48 958.178 209.439V259.893H945.774Z" fill="#171717"/>
<path d="M218.216 407.893V300.257H260.682C268.845 300.257 275.8 301.816 281.547 304.935C287.293 308.018 291.673 312.31 294.686 317.811C297.734 323.277 299.258 329.584 299.258 336.732C299.258 343.879 297.717 350.186 294.633 355.652C291.55 361.118 287.083 365.375 281.231 368.423C275.415 371.472 268.372 372.996 260.103 372.996H233.037V354.759H256.424C260.804 354.759 264.413 354.005 267.251 352.499C270.124 350.957 272.262 348.837 273.663 346.139C275.1 343.406 275.818 340.27 275.818 336.732C275.818 333.158 275.1 330.039 273.663 327.376C272.262 324.678 270.124 322.594 267.251 321.122C264.378 319.616 260.734 318.862 256.319 318.862H240.973V407.893H218.216Z" fill="#171717"/>
<path d="M304.739 407.893V327.166H326.445V341.251H327.286C328.758 336.241 331.228 332.457 334.697 329.899C338.166 327.306 342.16 326.01 346.68 326.01C347.801 326.01 349.01 326.08 350.306 326.22C351.603 326.36 352.741 326.553 353.722 326.798V346.665C352.671 346.349 351.217 346.069 349.36 345.824C347.503 345.579 345.804 345.456 344.262 345.456C340.969 345.456 338.025 346.174 335.433 347.611C332.875 349.012 330.843 350.974 329.336 353.497C327.864 356.02 327.129 358.928 327.129 362.222V407.893H304.739Z" fill="#171717"/>
<path d="M389.135 409.47C380.971 409.47 373.911 407.736 367.954 404.267C362.033 400.763 357.46 395.893 354.237 389.656C351.013 383.384 349.402 376.114 349.402 367.845C349.402 359.506 351.013 352.218 354.237 345.982C357.46 339.71 362.033 334.839 367.954 331.371C373.911 327.867 380.971 326.115 389.135 326.115C397.298 326.115 404.341 327.867 410.263 331.371C416.219 334.839 420.809 339.71 424.032 345.982C427.256 352.218 428.868 359.506 428.868 367.845C428.868 376.114 427.256 383.384 424.032 389.656C420.809 395.893 416.219 400.763 410.263 404.267C404.341 407.736 397.298 409.47 389.135 409.47ZM389.24 392.126C392.954 392.126 396.055 391.075 398.542 388.973C401.03 386.836 402.905 383.928 404.166 380.249C405.462 376.57 406.111 372.383 406.111 367.688C406.111 362.992 405.462 358.805 404.166 355.126C402.905 351.447 401.03 348.539 398.542 346.402C396.055 344.265 392.954 343.196 389.24 343.196C385.491 343.196 382.337 344.265 379.78 346.402C377.257 348.539 375.347 351.447 374.051 355.126C372.789 358.805 372.159 362.992 372.159 367.688C372.159 372.383 372.789 376.57 374.051 380.249C375.347 383.928 377.257 386.836 379.78 388.973C382.337 391.075 385.491 392.126 389.24 392.126Z" fill="#171717"/>
<path d="M434.546 438.166V327.166H456.62V340.726H457.618C458.599 338.554 460.018 336.346 461.875 334.104C463.767 331.826 466.22 329.934 469.233 328.428C472.282 326.886 476.066 326.115 480.586 326.115C486.472 326.115 491.903 327.657 496.878 330.74C501.854 333.788 505.83 338.396 508.809 344.562C511.787 350.694 513.276 358.385 513.276 367.635C513.276 376.64 511.822 384.243 508.914 390.445C506.041 396.611 502.116 401.289 497.141 404.477C492.201 407.631 486.665 409.207 480.533 409.207C476.188 409.207 472.492 408.489 469.444 407.053C466.43 405.616 463.96 403.812 462.033 401.639C460.106 399.432 458.634 397.207 457.618 394.964H456.935V438.166H434.546ZM456.462 367.53C456.462 372.33 457.128 376.517 458.459 380.091C459.791 383.665 461.718 386.45 464.24 388.447C466.763 390.41 469.829 391.391 473.438 391.391C477.082 391.391 480.165 390.392 482.688 388.395C485.211 386.363 487.12 383.56 488.417 379.986C489.748 376.377 490.414 372.225 490.414 367.53C490.414 362.87 489.766 358.77 488.469 355.232C487.173 351.693 485.263 348.925 482.74 346.928C480.218 344.93 477.117 343.932 473.438 343.932C469.794 343.932 466.711 344.895 464.188 346.822C461.7 348.75 459.791 351.482 458.459 355.021C457.128 358.56 456.462 362.73 456.462 367.53Z" fill="#171717"/>
<path d="M555.797 409.47C547.633 409.47 540.573 407.736 534.616 404.267C528.695 400.763 524.122 395.893 520.899 389.656C517.675 383.384 516.064 376.114 516.064 367.845C516.064 359.506 517.675 352.218 520.899 345.982C524.122 339.71 528.695 334.839 534.616 331.371C540.573 327.867 547.633 326.115 555.797 326.115C563.96 326.115 571.003 327.867 576.924 331.371C582.881 334.839 587.471 339.71 590.694 345.982C593.918 352.218 595.529 359.506 595.529 367.845C595.529 376.114 593.918 383.384 590.694 389.656C587.471 395.893 582.881 400.763 576.924 404.267C571.003 407.736 563.96 409.47 555.797 409.47ZM555.902 392.126C559.616 392.126 562.717 391.075 565.204 388.973C567.692 386.836 569.566 383.928 570.828 380.249C572.124 376.57 572.772 372.383 572.772 367.688C572.772 362.992 572.124 358.805 570.828 355.126C569.566 351.447 567.692 348.539 565.204 346.402C562.717 344.265 559.616 343.196 555.902 343.196C552.153 343.196 548.999 344.265 546.441 346.402C543.919 348.539 542.009 351.447 540.713 355.126C539.451 358.805 538.821 362.992 538.821 367.688C538.821 372.383 539.451 376.57 540.713 380.249C542.009 383.928 543.919 386.836 546.441 388.973C548.999 391.075 552.153 392.126 555.902 392.126ZM547.755 316.76L558.897 292.847H579.605L563.575 316.76H547.755Z" fill="#171717"/>
<path d="M668.375 350.186L647.878 351.447C647.528 349.696 646.774 348.119 645.618 346.717C644.462 345.281 642.938 344.142 641.046 343.301C639.189 342.425 636.964 341.987 634.371 341.987C630.902 341.987 627.977 342.723 625.594 344.195C623.211 345.631 622.02 347.558 622.02 349.976C622.02 351.903 622.791 353.532 624.333 354.864C625.874 356.195 628.52 357.264 632.269 358.07L646.88 361.013C654.728 362.625 660.579 365.217 664.434 368.791C668.288 372.365 670.215 377.06 670.215 382.876C670.215 388.167 668.656 392.81 665.537 396.804C662.454 400.798 658.214 403.917 652.819 406.159C647.458 408.366 641.274 409.47 634.266 409.47C623.579 409.47 615.065 407.245 608.723 402.795C602.417 398.311 598.72 392.214 597.634 384.506L619.655 383.349C620.321 386.608 621.933 389.096 624.49 390.812C627.048 392.494 630.324 393.335 634.318 393.335C638.243 393.335 641.396 392.582 643.779 391.075C646.196 389.534 647.423 387.554 647.458 385.136C647.423 383.104 646.564 381.44 644.882 380.143C643.201 378.812 640.608 377.796 637.104 377.095L623.124 374.31C615.24 372.733 609.372 370 605.517 366.111C601.698 362.222 599.789 357.264 599.789 351.237C599.789 346.052 601.19 341.584 603.993 337.835C606.831 334.086 610.808 331.196 615.924 329.163C621.074 327.131 627.101 326.115 634.003 326.115C644.199 326.115 652.223 328.27 658.074 332.58C663.961 336.889 667.394 342.758 668.375 350.186Z" fill="#171717"/>
<path d="M675.433 407.893V327.166H697.822V407.893H675.433ZM686.68 316.76C683.352 316.76 680.496 315.656 678.114 313.449C675.766 311.206 674.592 308.526 674.592 305.408C674.592 302.324 675.766 299.679 678.114 297.472C680.496 295.229 683.352 294.108 686.68 294.108C690.009 294.108 692.847 295.229 695.195 297.472C697.577 299.679 698.768 302.324 698.768 305.408C698.768 308.526 697.577 311.206 695.195 313.449C692.847 315.656 690.009 316.76 686.68 316.76Z" fill="#171717"/>
<path d="M749.816 327.166V343.984H701.201V327.166H749.816ZM712.238 307.825H734.627V383.087C734.627 385.154 734.943 386.766 735.573 387.922C736.204 389.043 737.08 389.831 738.201 390.287C739.357 390.742 740.689 390.97 742.196 390.97C743.247 390.97 744.298 390.883 745.349 390.707C746.4 390.497 747.206 390.339 747.767 390.234L751.288 406.895C750.167 407.245 748.59 407.648 746.558 408.104C744.526 408.594 742.055 408.892 739.147 408.997C733.751 409.207 729.021 408.489 724.957 406.842C720.928 405.196 717.792 402.638 715.549 399.169C713.307 395.7 712.203 391.321 712.238 386.03V307.825Z" fill="#171717"/>
<path d="M791.128 409.47C782.964 409.47 775.904 407.736 769.948 404.267C764.026 400.763 759.454 395.893 756.23 389.656C753.007 383.384 751.395 376.114 751.395 367.845C751.395 359.506 753.007 352.218 756.23 345.982C759.454 339.71 764.026 334.839 769.948 331.371C775.904 327.867 782.964 326.115 791.128 326.115C799.292 326.115 806.335 327.867 812.256 331.371C818.212 334.839 822.802 339.71 826.026 345.982C829.249 352.218 830.861 359.506 830.861 367.845C830.861 376.114 829.249 383.384 826.026 389.656C822.802 395.893 818.212 400.763 812.256 404.267C806.335 407.736 799.292 409.47 791.128 409.47ZM791.233 392.126C794.947 392.126 798.048 391.075 800.536 388.973C803.023 386.836 804.898 383.928 806.159 380.249C807.456 376.57 808.104 372.383 808.104 367.688C808.104 362.992 807.456 358.805 806.159 355.126C804.898 351.447 803.023 348.539 800.536 346.402C798.048 344.265 794.947 343.196 791.233 343.196C787.484 343.196 784.331 344.265 781.773 346.402C779.25 348.539 777.341 351.447 776.044 355.126C774.783 358.805 774.152 362.992 774.152 367.688C774.152 372.383 774.783 376.57 776.044 380.249C777.341 383.928 779.25 386.836 781.773 388.973C784.331 391.075 787.484 392.126 791.233 392.126Z" fill="#171717"/>
</svg>
