<svg width="224" height="125" viewBox="0 0 224 125" fill="none" xmlns="http://www.w3.org/2000/svg">
<path d="M58.3135 35.8857H71.3968" stroke="white" stroke-width="2.24286"/>
<path d="M124.104 82.9854H137.188" stroke="#D9D9D9" stroke-width="2.24286"/>
<path d="M103.171 35.8857H116.254" stroke="#D9D9D9" stroke-width="2.24286"/>
<path d="M149.524 35.8857H162.608" stroke="white" stroke-width="2.24286"/>
<path d="M75.5088 82.9854H88.5922" stroke="white" stroke-width="2.24286"/>
<g filter="url(#filter0_d_40_2096)">
<rect x="14.9521" y="15.7002" width="42.1266" height="40.3715" rx="5.98097" fill="white"/>
<path d="M43.8198 31.8264C43.7627 31.6481 43.6537 31.491 43.5067 31.3751C43.3597 31.2593 43.1815 31.1899 42.9949 31.1759L40.4058 30.9713L39.4098 28.6121C39.3371 28.4412 39.2157 28.2955 39.0608 28.1931C38.9059 28.0907 38.7243 28.0361 38.5386 28.0361C38.3529 28.0361 38.1713 28.0907 38.0164 28.1931C37.8615 28.2955 37.7401 28.4412 37.6674 28.6121L36.6714 30.9713L34.0823 31.1759C33.8964 31.1896 33.7188 31.2584 33.5721 31.3734C33.4254 31.4885 33.3163 31.6446 33.2587 31.8219C33.2011 31.9992 33.1976 32.1897 33.2487 32.369C33.2997 32.5483 33.403 32.7083 33.5454 32.8286L35.5121 34.4884L34.9122 36.9688C34.8685 37.1485 34.8792 37.337 34.9428 37.5106C35.0065 37.6842 35.1202 37.8349 35.2696 37.9438C35.4204 38.0549 35.6008 38.1189 35.788 38.1275C35.9751 38.1361 36.1606 38.089 36.321 37.9921L38.5386 36.6569L40.7569 37.9928C40.9174 38.0894 41.1028 38.1364 41.2899 38.1277C41.477 38.1191 41.6574 38.0554 41.8083 37.9445C41.9574 37.8354 42.0709 37.6846 42.1344 37.5111C42.1979 37.3375 42.2085 37.1491 42.165 36.9695L41.5651 34.4891L43.5318 32.8293C43.6742 32.7098 43.7777 32.5506 43.829 32.3719C43.8803 32.1932 43.8771 32.0032 43.8198 31.8264ZM40.5768 33.8534C40.4972 33.9206 40.438 34.0087 40.4056 34.1077C40.3733 34.2068 40.3693 34.3128 40.3939 34.4141L40.9742 36.8118L38.8281 35.5215C38.7408 35.469 38.6408 35.4412 38.5389 35.4412C38.4371 35.4412 38.3371 35.469 38.2498 35.5215L36.1037 36.8132L36.684 34.4141C36.7086 34.3128 36.7044 34.2066 36.6719 34.1076C36.6395 34.0086 36.5801 33.9205 36.5004 33.8534L34.6136 32.2595L37.1032 32.0626C37.2056 32.0544 37.3039 32.0183 37.3872 31.9581C37.4705 31.8979 37.5357 31.816 37.5756 31.7212L38.5386 29.4314L39.5051 31.7212C39.545 31.816 39.6102 31.8979 39.6935 31.9581C39.7768 32.0183 39.8751 32.0544 39.9775 32.0626L42.4678 32.2595L40.5768 33.8534ZM33.2174 35.5481L29.1228 39.6469C29.0176 39.7522 28.8749 39.8113 28.7261 39.8113C28.5773 39.8113 28.4346 39.7522 28.3294 39.6469C28.2241 39.5417 28.165 39.399 28.165 39.2502C28.165 39.1014 28.2241 38.9587 28.3294 38.8535L32.4261 34.7568C32.5313 34.6516 32.674 34.5925 32.8228 34.5925C32.9716 34.5925 33.1143 34.6516 33.2195 34.7568C33.3247 34.862 33.3838 35.0047 33.3838 35.1535C33.3838 35.3023 33.3247 35.445 33.2195 35.5502L33.2174 35.5481ZM33.9751 39.0435C34.0801 39.1486 34.1392 39.2912 34.1392 39.4398C34.1392 39.5885 34.0801 39.731 33.9751 39.8362L30.2442 43.572C30.1921 43.6241 30.1303 43.6654 30.0622 43.6936C29.9941 43.7218 29.9212 43.7363 29.8475 43.7363C29.7738 43.7363 29.7009 43.7218 29.6328 43.6936C29.5647 43.6654 29.5029 43.6241 29.4508 43.572C29.3987 43.5199 29.3574 43.458 29.3292 43.3899C29.301 43.3219 29.2865 43.2489 29.2865 43.1753C29.2865 43.1016 29.301 43.0286 29.3292 42.9606C29.3574 42.8925 29.3987 42.8306 29.4508 42.7785L33.1845 39.0456C33.2896 38.9405 33.4322 38.8815 33.5808 38.8815C33.7295 38.8815 33.872 38.9405 33.9772 39.0456L33.9751 39.0435ZM39.0916 38.9734C39.1437 39.0255 39.1851 39.0873 39.2133 39.1554C39.2415 39.2234 39.256 39.2964 39.256 39.3701C39.256 39.4438 39.2415 39.5167 39.2133 39.5848C39.1851 39.6529 39.1437 39.7147 39.0916 39.7668L35.2871 43.5713C35.1819 43.6765 35.0392 43.7356 34.8904 43.7356C34.7416 43.7356 34.5989 43.6765 34.4937 43.5713C34.3885 43.466 34.3294 43.3233 34.3294 43.1746C34.3294 43.0258 34.3885 42.8831 34.4937 42.7778L38.2989 38.9734C38.3511 38.9209 38.4131 38.8792 38.4815 38.8508C38.5498 38.8224 38.6231 38.8078 38.6971 38.8079C38.7712 38.8079 38.8444 38.8227 38.9127 38.8512C38.981 38.8797 39.043 38.9215 39.0951 38.9741L39.0916 38.9734Z" fill="#070B1D"/>
</g>
<g filter="url(#filter1_d_40_2096)">
<rect x="112.891" y="15.7002" width="42.5984" height="40.3715" rx="5.98097" fill="#F1A300"/>
<path d="M141.477 33.9253C141.477 34.0741 141.418 34.2167 141.313 34.3218C141.208 34.427 141.065 34.4861 140.916 34.4861H139.795V35.6075C139.795 35.7562 139.736 35.8988 139.631 36.004C139.526 36.1091 139.383 36.1682 139.234 36.1682C139.086 36.1682 138.943 36.1091 138.838 36.004C138.733 35.8988 138.674 35.7562 138.674 35.6075V34.4861H137.552C137.403 34.4861 137.261 34.427 137.156 34.3218C137.05 34.2167 136.991 34.0741 136.991 33.9253C136.991 33.7766 137.05 33.634 137.156 33.5289C137.261 33.4237 137.403 33.3646 137.552 33.3646H138.674V32.2432C138.674 32.0945 138.733 31.9519 138.838 31.8467C138.943 31.7416 139.086 31.6825 139.234 31.6825C139.383 31.6825 139.526 31.7416 139.631 31.8467C139.736 31.9519 139.795 32.0945 139.795 32.2432V33.3646H140.916C141.065 33.3646 141.208 33.4237 141.313 33.5289C141.418 33.634 141.477 33.7766 141.477 33.9253ZM134.749 31.1218H135.309V31.6825C135.309 31.8312 135.368 31.9738 135.474 32.079C135.579 32.1841 135.721 32.2432 135.87 32.2432C136.019 32.2432 136.161 32.1841 136.266 32.079C136.372 31.9738 136.431 31.8312 136.431 31.6825V31.1218H136.991C137.14 31.1218 137.283 31.0627 137.388 30.9575C137.493 30.8524 137.552 30.7098 137.552 30.5611C137.552 30.4123 137.493 30.2697 137.388 30.1646C137.283 30.0594 137.14 30.0003 136.991 30.0003H136.431V29.4396C136.431 29.2909 136.372 29.1483 136.266 29.0431C136.161 28.938 136.019 28.8789 135.87 28.8789C135.721 28.8789 135.579 28.938 135.474 29.0431C135.368 29.1483 135.309 29.2909 135.309 29.4396V30.0003H134.749C134.6 30.0003 134.457 30.0594 134.352 30.1646C134.247 30.2697 134.188 30.4123 134.188 30.5611C134.188 30.7098 134.247 30.8524 134.352 30.9575C134.457 31.0627 134.6 31.1218 134.749 31.1218ZM139.849 37.9204C139.914 37.9964 139.958 38.0885 139.976 38.1871C139.993 38.2857 139.984 38.3873 139.949 38.4812C139.56 39.5422 138.91 40.4882 138.059 41.2318C137.208 41.9754 136.183 42.4926 135.079 42.7358C133.976 42.9789 132.829 42.9401 131.744 42.623C130.659 42.3059 129.672 41.7206 128.873 40.9212C128.074 40.1218 127.489 39.1341 127.173 38.0492C126.856 36.9642 126.818 35.817 127.062 34.7135C127.305 33.6099 127.823 32.5855 128.567 31.7348C129.311 30.8842 130.258 30.2346 131.319 29.8461C131.412 29.8119 131.513 29.8032 131.611 29.8208C131.709 29.8384 131.801 29.8818 131.876 29.9464C131.952 30.0111 132.009 30.0946 132.042 30.1886C132.074 30.2826 132.081 30.3836 132.062 30.4812C131.866 31.4757 131.917 32.5033 132.212 33.4733C132.507 34.4432 133.036 35.3256 133.753 36.0424C134.47 36.7592 135.352 37.2885 136.322 37.5834C137.292 37.8783 138.32 37.9298 139.314 37.7333C139.412 37.7142 139.513 37.7215 139.607 37.7544C139.701 37.7873 139.784 37.8446 139.849 37.9204ZM138.49 38.9634C138.364 38.9697 138.238 38.9732 138.113 38.9732C136.18 38.9712 134.327 38.2023 132.96 36.8355C131.594 35.4686 130.825 33.6153 130.824 31.6825C130.824 31.557 130.824 31.4309 130.833 31.3054C130.087 31.7347 129.45 32.33 128.971 33.0452C128.492 33.7604 128.184 34.5762 128.071 35.4295C127.958 36.2828 128.043 37.1506 128.32 37.9658C128.596 38.781 129.056 39.5216 129.665 40.1302C130.274 40.7389 131.014 41.1992 131.83 41.4756C132.645 41.752 133.513 41.837 134.366 41.724C135.219 41.6111 136.035 41.3032 136.75 40.8242C137.465 40.3452 138.061 39.708 138.49 38.962V38.9634Z" fill="#070B1D"/>
</g>
<g filter="url(#filter2_d_40_2096)">
<rect x="162.981" y="15.7002" width="39.1236" height="40.3715" rx="5.98097" fill="white"/>
<path d="M182.794 28.3757C182.716 28.3367 182.63 28.3164 182.543 28.3164C182.456 28.3164 182.37 28.3367 182.292 28.3757C182.005 28.5194 175.254 31.9495 175.254 36.7268C175.254 37.3517 175.403 37.9675 175.688 38.5232C175.974 39.0789 176.388 39.5583 176.897 39.9216C177.405 40.285 177.993 40.5217 178.611 40.6121C179.229 40.7026 179.86 40.6441 180.451 40.4416L179.763 42.7335C179.738 42.8172 179.733 42.9057 179.748 42.9917C179.763 43.0778 179.798 43.1592 179.851 43.2293C179.903 43.2995 179.971 43.3564 180.049 43.3957C180.127 43.4349 180.213 43.4554 180.3 43.4554H184.786C184.873 43.4554 184.96 43.4349 185.038 43.3957C185.116 43.3564 185.184 43.2995 185.236 43.2293C185.288 43.1592 185.323 43.0778 185.338 42.9917C185.353 42.9057 185.348 42.8172 185.323 42.7335L184.635 40.4416C185.226 40.6441 185.857 40.7026 186.476 40.6121C187.094 40.5217 187.682 40.285 188.19 39.9216C188.698 39.5583 189.112 39.0789 189.398 38.5232C189.684 37.9675 189.833 37.3517 189.833 36.7268C189.833 31.9495 183.081 28.5194 182.794 28.3757ZM185.908 39.5304C185.23 39.5305 184.575 39.2852 184.065 38.84C183.973 38.7601 183.858 38.7122 183.737 38.7034C183.616 38.6946 183.495 38.7255 183.392 38.7914C183.29 38.8573 183.212 38.9546 183.17 39.0687C183.128 39.1828 183.124 39.3074 183.159 39.4239L184.033 42.334H181.054L181.927 39.4239C181.962 39.3074 181.958 39.1828 181.916 39.0687C181.874 38.9546 181.796 38.8573 181.694 38.7914C181.592 38.7255 181.471 38.6946 181.35 38.7034C181.228 38.7122 181.113 38.7601 181.022 38.84C180.616 39.1938 180.117 39.4233 179.584 39.5012C179.052 39.579 178.508 39.5019 178.018 39.2791C177.528 39.0562 177.113 38.6971 176.822 38.2445C176.53 37.7919 176.375 37.2651 176.375 36.7268C176.375 34.6326 178.086 32.7633 179.522 31.5641C180.463 30.7873 181.474 30.1002 182.543 29.5118C183.612 30.1002 184.624 30.7873 185.565 31.5641C188.165 33.7368 188.711 35.5711 188.711 36.7268C188.711 37.4704 188.416 38.1835 187.89 38.7093C187.364 39.235 186.651 39.5304 185.908 39.5304Z" fill="#070B1D"/>
</g>
<g filter="url(#filter3_d_40_2096)">
<rect x="65.043" y="14.9521" width="40.3715" height="40.3715" rx="5.98097" fill="white" shape-rendering="crispEdges"/>
<path d="M90.8356 30.0922C90.0718 30.0922 89.3147 30.2348 88.6032 30.5127C87.5995 28.4311 85.5719 27.3966 85.4793 27.3503C85.4014 27.3113 85.3155 27.291 85.2284 27.291C85.1413 27.291 85.0554 27.3113 84.9775 27.3503C84.8843 27.3966 82.8573 28.4311 81.8536 30.5127C81.1422 30.2348 80.3851 30.0922 79.6213 30.0922C79.4726 30.0922 79.3299 30.1513 79.2248 30.2564C79.1196 30.3616 79.0605 30.5042 79.0605 30.6529V36.2601C79.0605 37.8959 79.7104 39.4647 80.8671 40.6214C82.0238 41.7781 83.5926 42.4279 85.2284 42.4279C86.8642 42.4279 88.4331 41.7781 89.5898 40.6214C90.7465 39.4647 91.3963 37.8959 91.3963 36.2601V30.6529C91.3963 30.5042 91.3372 30.3616 91.2321 30.2564C91.1269 30.1513 90.9843 30.0922 90.8356 30.0922ZM84.6677 41.2757C83.4346 41.1363 82.2959 40.548 81.4687 39.623C80.6414 38.698 80.1834 37.501 80.182 36.2601V35.1695C81.4151 35.3089 82.5538 35.8971 83.381 36.8221C84.2083 37.7471 84.6663 38.9441 84.6677 40.1851V41.2757ZM84.6677 36.6428C84.1535 35.9098 83.4859 35.2977 82.7113 34.8487C81.9366 34.3998 81.0735 34.1249 80.182 34.0431V31.2445C81.4151 31.3839 82.5538 31.9721 83.381 32.8971C84.2083 33.8221 84.6663 35.0191 84.6677 36.2601V36.6428ZM82.8559 31.0111C83.5021 29.6646 84.707 28.8152 85.2284 28.4949C85.7499 28.8159 86.9547 29.6653 87.6002 31.0111C86.5637 31.6526 85.7388 32.5849 85.2284 33.692C84.718 32.5848 83.8928 31.6523 82.8559 31.0111ZM90.2749 36.2601C90.2734 37.501 89.8154 38.698 88.9882 39.623C88.1609 40.548 87.0222 41.1363 85.7891 41.2757V40.1851C85.7906 38.9441 86.2486 37.7471 87.0758 36.8221C87.9031 35.8971 89.0418 35.3089 90.2749 35.1695V36.2601ZM90.2749 34.0431C89.3833 34.1249 88.5202 34.3998 87.7456 34.8487C86.971 35.2977 86.3034 35.9098 85.7891 36.6428V36.2601C85.7906 35.0191 86.2486 33.8221 87.0758 32.8971C87.9031 31.9721 89.0418 31.3839 90.2749 31.2445V34.0431Z" fill="#070B1D"/>
</g>
<g filter="url(#filter4_d_40_2096)">
<rect x="32.8955" y="62.7998" width="42.5892" height="40.3715" rx="5.98097" fill="#F1A300"/>
<path d="M62.4603 80.6536L58.5353 76.1679C58.4828 76.108 58.4182 76.0599 58.3457 76.0269C58.2731 75.9939 58.1944 75.9768 58.1148 75.9766H50.2647C50.1851 75.9768 50.1064 75.9939 50.0338 76.0269C49.9613 76.0599 49.8967 76.108 49.8442 76.1679L45.9192 80.6536C45.8276 80.7582 45.7781 80.893 45.7803 81.032C45.7825 81.1709 45.8363 81.3041 45.9311 81.4057L53.7811 89.8164C53.8336 89.8727 53.8971 89.9175 53.9676 89.9482C54.0381 89.9789 54.1142 89.9947 54.1911 89.9947C54.2681 89.9947 54.3442 89.9789 54.4147 89.9482C54.4852 89.9175 54.5487 89.8727 54.6012 89.8164L62.4512 81.4057C62.5456 81.3038 62.5989 81.1704 62.6005 81.0314C62.6022 80.8925 62.5523 80.7578 62.4603 80.6536ZM60.8041 80.4623H57.8344L55.3112 77.098H57.8603L60.8041 80.4623ZM50.4456 81.5837L52.5574 86.8636L47.6301 81.5837H50.4456ZM56.7256 81.5837L54.1897 87.924L51.6539 81.5837H56.7256ZM51.9469 80.4623L54.1897 77.4716L56.4326 80.4623H51.9469ZM57.9339 81.5837H60.7494L55.8221 86.8636L57.9339 81.5837ZM50.5192 77.098H53.0683L50.5451 80.4623H47.5754L50.5192 77.098Z" fill="#070B1D"/>
</g>
<g filter="url(#filter5_d_40_2096)">
<rect x="82.2383" y="62.7998" width="43.8474" height="40.3715" rx="5.98097" fill="#F1A300"/>
<path d="M106.909 79.8444C106.618 79.8442 106.329 79.8677 106.042 79.9144C105.94 78.862 105.51 77.8681 104.812 77.0736C104.115 76.279 103.185 75.7239 102.154 75.4869C102.062 75.4656 101.965 75.4682 101.874 75.4944C101.783 75.5206 101.7 75.5696 101.633 75.6367C101.565 75.7038 101.516 75.7869 101.49 75.8781C101.464 75.9694 101.461 76.0658 101.482 76.1583C101.614 76.7337 101.615 77.3314 101.484 77.907C101.354 78.4827 101.095 79.0215 100.727 79.4834C100.36 79.9453 99.8928 80.3185 99.3612 80.5751C98.8297 80.8317 98.2471 80.9653 97.6568 80.9658C97.3598 80.9658 97.0638 80.9324 96.7743 80.8663C96.6817 80.845 96.5852 80.8475 96.4938 80.8738C96.4025 80.9 96.3193 80.949 96.2521 81.0162C96.1849 81.0834 96.1359 81.1666 96.1097 81.2579C96.0834 81.3493 96.0809 81.4458 96.1022 81.5384C96.2528 82.188 96.5303 82.8013 96.9187 83.3433C97.3071 83.8853 97.7987 84.3452 98.3654 84.6966C97.9668 85.2396 97.7265 85.8823 97.6711 86.5535C97.6157 87.2247 97.7474 87.8982 98.0515 88.4991C98.3557 89.1 98.8203 89.6049 99.394 89.9577C99.9677 90.3106 100.628 90.4976 101.301 90.498H106.909C108.321 90.498 109.676 89.9367 110.675 88.9378C111.674 87.9388 112.235 86.5839 112.235 85.1712C112.235 83.7584 111.674 82.4035 110.675 81.4045C109.676 80.4056 108.321 79.8444 106.909 79.8444ZM97.4724 82.0872C97.5334 82.0872 97.5951 82.0872 97.6568 82.0872C98.9947 82.0857 100.277 81.5536 101.223 80.6075C102.17 79.6614 102.702 78.3787 102.703 77.0408C102.703 76.9784 102.703 76.916 102.703 76.8536C103.349 77.1558 103.899 77.6292 104.295 78.2223C104.69 78.8155 104.915 79.5057 104.946 80.2179C104.261 80.4899 103.64 80.9005 103.121 81.424C102.603 81.9474 102.198 82.5725 101.932 83.2598C101.458 83.1778 100.973 83.1904 100.503 83.297C100.034 83.4036 99.5908 83.602 99.1987 83.8808C98.4446 83.4852 97.8389 82.8559 97.4724 82.0872ZM106.909 89.3765H101.301C100.956 89.3759 100.615 89.3045 100.299 89.1667C99.9822 89.0289 99.6974 88.8277 99.4619 88.5754C99.2263 88.3232 99.0451 88.0253 98.9292 87.7003C98.8134 87.3752 98.7655 87.0298 98.7884 86.6854C98.8114 86.3411 98.9047 86.0051 99.0627 85.6983C99.2207 85.3915 99.4399 85.1203 99.7068 84.9016C99.9738 84.6829 100.283 84.5212 100.615 84.4267C100.947 84.3321 101.294 84.3066 101.636 84.3518C101.61 84.5179 101.592 84.6875 101.582 84.8586C101.578 84.9322 101.589 85.0059 101.613 85.0756C101.637 85.1452 101.675 85.2094 101.724 85.2645C101.773 85.3195 101.832 85.3644 101.899 85.3965C101.965 85.4286 102.037 85.4473 102.111 85.4515C102.185 85.4557 102.258 85.4454 102.328 85.4212C102.398 85.3969 102.462 85.3592 102.517 85.3101C102.572 85.261 102.617 85.2016 102.649 85.1352C102.681 85.0688 102.7 84.9967 102.704 84.923C102.72 84.6434 102.764 84.366 102.836 84.0953C102.836 84.0841 102.842 84.0729 102.844 84.0616C103.05 83.3043 103.464 82.6196 104.039 82.085C104.613 81.5503 105.326 81.187 106.096 81.036C106.866 80.885 107.663 80.9524 108.397 81.2305C109.131 81.5085 109.773 81.9863 110.25 82.6098C110.727 83.2333 111.02 83.9776 111.096 84.7588C111.172 85.54 111.028 86.3269 110.68 87.0307C110.333 87.7345 109.796 88.3271 109.129 88.7416C108.463 89.1561 107.693 89.376 106.909 89.3765Z" fill="#070B1D"/>
</g>
<g filter="url(#filter6_d_40_2096)">
<rect x="133.076" y="62.7998" width="40.3715" height="40.3715" rx="5.98097" fill="white" shape-rendering="crispEdges"/>
<path d="M160.551 76.257C160.551 76.4057 160.492 76.5483 160.387 76.6535C160.282 76.7586 160.139 76.8177 159.991 76.8177H148.216C148.067 76.8177 147.924 76.7586 147.819 76.6535C147.714 76.5483 147.655 76.4057 147.655 76.257C147.655 76.1083 147.714 75.9657 147.819 75.8605C147.924 75.7554 148.067 75.6963 148.216 75.6963H159.991C160.139 75.6963 160.282 75.7554 160.387 75.8605C160.492 75.9657 160.551 76.1083 160.551 76.257ZM157.187 78.4999C157.187 78.3512 157.128 78.2085 157.023 78.1034C156.918 77.9982 156.775 77.9392 156.626 77.9392H146.533C146.385 77.9392 146.242 77.9982 146.137 78.1034C146.032 78.2085 145.973 78.3512 145.973 78.4999C145.973 78.6486 146.032 78.7912 146.137 78.8964C146.242 79.0015 146.385 79.0606 146.533 79.0606H156.626C156.775 79.0606 156.918 79.0015 157.023 78.8964C157.128 78.7912 157.187 78.6486 157.187 78.4999ZM156.066 80.7427C156.066 80.594 156.006 80.4514 155.901 80.3462C155.796 80.2411 155.654 80.182 155.505 80.182H148.216C148.067 80.182 147.924 80.2411 147.819 80.3462C147.714 80.4514 147.655 80.594 147.655 80.7427C147.655 80.8914 147.714 81.0341 147.819 81.1392C147.924 81.2444 148.067 81.3034 148.216 81.3034H155.505C155.654 81.3034 155.796 81.2444 155.901 81.1392C156.006 81.0341 156.066 80.8914 156.066 80.7427ZM157.187 82.9856C157.187 82.8369 157.128 82.6943 157.023 82.5891C156.918 82.484 156.775 82.4249 156.626 82.4249H150.458C150.31 82.4249 150.167 82.484 150.062 82.5891C149.957 82.6943 149.898 82.8369 149.898 82.9856C149.898 83.1343 149.957 83.2769 150.062 83.3821C150.167 83.4872 150.31 83.5463 150.458 83.5463H156.626C156.775 83.5463 156.918 83.4872 157.023 83.3821C157.128 83.2769 157.187 83.1343 157.187 82.9856ZM157.187 84.6677H152.701C152.553 84.6677 152.41 84.7268 152.305 84.832C152.2 84.9371 152.141 85.0797 152.141 85.2285C152.141 85.3772 152.2 85.5198 152.305 85.6249C152.41 85.7301 152.553 85.7892 152.701 85.7892H157.187C157.336 85.7892 157.478 85.7301 157.583 85.6249C157.689 85.5198 157.748 85.3772 157.748 85.2285C157.748 85.0797 157.689 84.9371 157.583 84.832C157.478 84.7268 157.336 84.6677 157.187 84.6677ZM155.505 86.9106H153.262C153.113 86.9106 152.971 86.9697 152.865 87.0748C152.76 87.18 152.701 87.3226 152.701 87.4713C152.701 87.62 152.76 87.7627 152.865 87.8678C152.971 87.973 153.113 88.032 153.262 88.032H155.505C155.654 88.032 155.796 87.973 155.901 87.8678C156.006 87.7627 156.066 87.62 156.066 87.4713C156.066 87.3226 156.006 87.18 155.901 87.0748C155.796 86.9697 155.654 86.9106 155.505 86.9106ZM153.262 89.1535H152.141C151.992 89.1535 151.849 89.2125 151.744 89.3177C151.639 89.4229 151.58 89.5655 151.58 89.7142C151.58 89.8629 151.639 90.0055 151.744 90.1107C151.849 90.2158 151.992 90.2749 152.141 90.2749H153.262C153.411 90.2749 153.553 90.2158 153.658 90.1107C153.764 90.0055 153.823 89.8629 153.823 89.7142C153.823 89.5655 153.764 89.4229 153.658 89.3177C153.553 89.2125 153.411 89.1535 153.262 89.1535Z" fill="#070B1D"/>
</g>
<defs>
<filter id="filter0_d_40_2096" x="-0.000271082" y="0.747776" width="78.0128" height="76.2569" filterUnits="userSpaceOnUse" color-interpolation-filters="sRGB">
<feFlood flood-opacity="0" result="BackgroundImageFix"/>
<feColorMatrix in="SourceAlpha" type="matrix" values="0 0 0 0 0 0 0 0 0 0 0 0 0 0 0 0 0 0 127 0" result="hardAlpha"/>
<feOffset dx="2.99048" dy="2.99048"/>
<feGaussianBlur stdDeviation="8.97145"/>
<feComposite in2="hardAlpha" operator="out"/>
<feColorMatrix type="matrix" values="0 0 0 0 0.884167 0 0 0 0 0.884167 0 0 0 0 0.884167 0 0 0 0.8 0"/>
<feBlend mode="normal" in2="BackgroundImageFix" result="effect1_dropShadow_40_2096"/>
<feBlend mode="normal" in="SourceGraphic" in2="effect1_dropShadow_40_2096" result="shape"/>
</filter>
<filter id="filter1_d_40_2096" x="97.9382" y="0.747776" width="78.4844" height="76.2569" filterUnits="userSpaceOnUse" color-interpolation-filters="sRGB">
<feFlood flood-opacity="0" result="BackgroundImageFix"/>
<feColorMatrix in="SourceAlpha" type="matrix" values="0 0 0 0 0 0 0 0 0 0 0 0 0 0 0 0 0 0 127 0" result="hardAlpha"/>
<feOffset dx="2.99048" dy="2.99048"/>
<feGaussianBlur stdDeviation="8.97145"/>
<feComposite in2="hardAlpha" operator="out"/>
<feColorMatrix type="matrix" values="0 0 0 0 0.863782 0 0 0 0 0.617382 0 0 0 0 0.247783 0 0 0 0.8 0"/>
<feBlend mode="normal" in2="BackgroundImageFix" result="effect1_dropShadow_40_2096"/>
<feBlend mode="normal" in="SourceGraphic" in2="effect1_dropShadow_40_2096" result="shape"/>
</filter>
<filter id="filter2_d_40_2096" x="148.029" y="0.747776" width="75.0098" height="76.2569" filterUnits="userSpaceOnUse" color-interpolation-filters="sRGB">
<feFlood flood-opacity="0" result="BackgroundImageFix"/>
<feColorMatrix in="SourceAlpha" type="matrix" values="0 0 0 0 0 0 0 0 0 0 0 0 0 0 0 0 0 0 127 0" result="hardAlpha"/>
<feOffset dx="2.99048" dy="2.99048"/>
<feGaussianBlur stdDeviation="8.97145"/>
<feComposite in2="hardAlpha" operator="out"/>
<feColorMatrix type="matrix" values="0 0 0 0 0.884167 0 0 0 0 0.884167 0 0 0 0 0.884167 0 0 0 0.8 0"/>
<feBlend mode="normal" in2="BackgroundImageFix" result="effect1_dropShadow_40_2096"/>
<feBlend mode="normal" in="SourceGraphic" in2="effect1_dropShadow_40_2096" result="shape"/>
</filter>
<filter id="filter3_d_40_2096" x="50.0906" y="-0.000269413" width="76.2569" height="76.2569" filterUnits="userSpaceOnUse" color-interpolation-filters="sRGB">
<feFlood flood-opacity="0" result="BackgroundImageFix"/>
<feColorMatrix in="SourceAlpha" type="matrix" values="0 0 0 0 0 0 0 0 0 0 0 0 0 0 0 0 0 0 127 0" result="hardAlpha"/>
<feOffset dx="2.99048" dy="2.99048"/>
<feGaussianBlur stdDeviation="8.97145"/>
<feComposite in2="hardAlpha" operator="out"/>
<feColorMatrix type="matrix" values="0 0 0 0 0.884167 0 0 0 0 0.884167 0 0 0 0 0.884167 0 0 0 0.8 0"/>
<feBlend mode="normal" in2="BackgroundImageFix" result="effect1_dropShadow_40_2096"/>
<feBlend mode="normal" in="SourceGraphic" in2="effect1_dropShadow_40_2096" result="shape"/>
</filter>
<filter id="filter4_d_40_2096" x="17.9431" y="47.8474" width="78.4756" height="76.2569" filterUnits="userSpaceOnUse" color-interpolation-filters="sRGB">
<feFlood flood-opacity="0" result="BackgroundImageFix"/>
<feColorMatrix in="SourceAlpha" type="matrix" values="0 0 0 0 0 0 0 0 0 0 0 0 0 0 0 0 0 0 127 0" result="hardAlpha"/>
<feOffset dx="2.99048" dy="2.99048"/>
<feGaussianBlur stdDeviation="8.97145"/>
<feComposite in2="hardAlpha" operator="out"/>
<feColorMatrix type="matrix" values="0 0 0 0 0.863782 0 0 0 0 0.617382 0 0 0 0 0.247783 0 0 0 0.8 0"/>
<feBlend mode="normal" in2="BackgroundImageFix" result="effect1_dropShadow_40_2096"/>
<feBlend mode="normal" in="SourceGraphic" in2="effect1_dropShadow_40_2096" result="shape"/>
</filter>
<filter id="filter5_d_40_2096" x="67.2859" y="47.8474" width="79.7335" height="76.2569" filterUnits="userSpaceOnUse" color-interpolation-filters="sRGB">
<feFlood flood-opacity="0" result="BackgroundImageFix"/>
<feColorMatrix in="SourceAlpha" type="matrix" values="0 0 0 0 0 0 0 0 0 0 0 0 0 0 0 0 0 0 127 0" result="hardAlpha"/>
<feOffset dx="2.99048" dy="2.99048"/>
<feGaussianBlur stdDeviation="8.97145"/>
<feComposite in2="hardAlpha" operator="out"/>
<feColorMatrix type="matrix" values="0 0 0 0 0.863782 0 0 0 0 0.617382 0 0 0 0 0.247783 0 0 0 0.8 0"/>
<feBlend mode="normal" in2="BackgroundImageFix" result="effect1_dropShadow_40_2096"/>
<feBlend mode="normal" in="SourceGraphic" in2="effect1_dropShadow_40_2096" result="shape"/>
</filter>
<filter id="filter6_d_40_2096" x="118.124" y="47.8474" width="76.2569" height="76.2569" filterUnits="userSpaceOnUse" color-interpolation-filters="sRGB">
<feFlood flood-opacity="0" result="BackgroundImageFix"/>
<feColorMatrix in="SourceAlpha" type="matrix" values="0 0 0 0 0 0 0 0 0 0 0 0 0 0 0 0 0 0 127 0" result="hardAlpha"/>
<feOffset dx="2.99048" dy="2.99048"/>
<feGaussianBlur stdDeviation="8.97145"/>
<feComposite in2="hardAlpha" operator="out"/>
<feColorMatrix type="matrix" values="0 0 0 0 0.884167 0 0 0 0 0.884167 0 0 0 0 0.884167 0 0 0 0.8 0"/>
<feBlend mode="normal" in2="BackgroundImageFix" result="effect1_dropShadow_40_2096"/>
<feBlend mode="normal" in="SourceGraphic" in2="effect1_dropShadow_40_2096" result="shape"/>
</filter>
</defs>
</svg>
