<svg width="135" height="125" viewBox="0 0 135 125" fill="none" xmlns="http://www.w3.org/2000/svg">
<path d="M68.1846 0.269531C70.8443 0.516049 73.4556 0.929023 76.0078 1.49902C75.8922 1.99903 76.2022 2.49944 76.7021 2.61914C79.859 3.37444 82.9217 4.37384 85.8682 5.5957C86.3429 5.79235 86.8856 5.56882 87.0859 5.09668C89.5218 6.15011 91.8775 7.35385 94.1406 8.69727C93.8754 9.13657 94.0142 9.70839 94.4521 9.97754C97.2007 11.6654 99.8068 13.5642 102.247 15.6504C102.638 15.9842 103.223 15.939 103.56 15.5518C105.542 17.2986 107.413 19.1696 109.16 21.1523C108.773 21.4889 108.729 22.0761 109.063 22.4668C111.149 24.9069 113.048 27.5124 114.735 30.2607C115.004 30.6986 115.575 30.8369 116.015 30.5723C117.358 32.8352 118.562 35.1903 119.615 37.626C119.143 37.8266 118.921 38.3712 119.118 38.8457C120.34 41.792 121.338 44.8541 122.094 48.0107C122.213 48.5104 122.713 48.819 123.213 48.7041C123.783 51.2564 124.197 53.8676 124.443 56.5273C123.932 56.5714 123.552 57.0199 123.592 57.5322C123.715 59.1239 123.778 60.7327 123.778 62.3564C123.778 63.9804 123.715 65.5898 123.592 67.1816C123.552 67.6939 123.932 68.1415 124.443 68.1855C124.197 70.845 123.783 73.4558 123.213 76.0078C122.713 75.8931 122.213 76.2026 122.094 76.7021C121.433 79.4645 120.586 82.1545 119.565 84.7578L119.118 85.8682C118.922 86.3425 119.144 86.8851 119.615 87.0859C118.562 89.5219 117.358 91.8774 116.015 94.1406C115.575 93.8762 115.004 94.0144 114.735 94.4521C113.048 97.2007 111.15 99.8068 109.063 102.247C108.73 102.638 108.774 103.223 109.16 103.56C107.413 105.542 105.542 107.413 103.56 109.16C103.223 108.774 102.638 108.73 102.247 109.063C99.8068 111.15 97.2007 113.048 94.4521 114.735C94.0144 115.004 93.8762 115.575 94.1406 116.015C91.8774 117.358 89.5219 118.562 87.0859 119.615C86.8977 119.173 86.4092 118.95 85.958 119.086L85.8682 119.118C82.9217 120.34 79.859 121.338 76.7021 122.094C76.2026 122.213 75.8931 122.713 76.0078 123.213C73.4555 123.783 70.8444 124.197 68.1846 124.443C68.1404 123.932 67.6939 123.552 67.1816 123.592C65.5898 123.715 63.9804 123.778 62.3564 123.778C60.7327 123.778 59.1239 123.715 57.5322 123.592L57.4365 123.589C56.9651 123.6 56.5687 123.964 56.5273 124.443C53.8676 124.197 51.2564 123.783 48.7041 123.213C48.819 122.713 48.5104 122.213 48.0107 122.094C44.8541 121.338 41.792 120.34 38.8457 119.118L38.7559 119.086C38.3044 118.95 37.8141 119.173 37.626 119.615C35.1903 118.562 32.8352 117.358 30.5723 116.015C30.8369 115.575 30.6986 115.004 30.2607 114.735C27.5124 113.048 24.9069 111.149 22.4668 109.063L22.3906 109.005C22.0031 108.736 21.4677 108.797 21.1523 109.16C19.1696 107.413 17.2986 105.542 15.5518 103.56C15.939 103.223 15.9841 102.638 15.6504 102.247L14.877 101.324C13.0929 99.153 11.4545 96.8572 9.97754 94.4521C9.70839 94.0142 9.13658 93.8754 8.69727 94.1406C7.35385 91.8775 6.15011 89.5218 5.09668 87.0859C5.56882 86.8856 5.79234 86.3429 5.5957 85.8682L5.14844 84.7578C4.12825 82.1545 3.28007 79.4646 2.61914 76.7021C2.49944 76.2022 1.99903 75.8922 1.49902 76.0078C0.929023 73.4556 0.516049 70.8443 0.269531 68.1846C0.780648 68.1407 1.16182 67.694 1.12207 67.1816L1.04102 65.9844C0.994432 65.1844 0.962946 64.3803 0.947266 63.5723L0.935547 62.3564C0.935552 61.1384 0.971112 59.9288 1.04102 58.7285L1.12207 57.5322C1.16188 57.0197 0.780746 56.5712 0.269531 56.5273C0.516111 53.8677 0.928965 51.2563 1.49902 48.7041C1.99919 48.8199 2.49948 48.5109 2.61914 48.0107C3.28002 45.2486 4.12836 42.5592 5.14844 39.9561L5.5957 38.8457C5.79266 38.3708 5.56929 37.8262 5.09668 37.626C6.15015 35.1901 7.35382 32.8344 8.69727 30.5713C9.13676 30.8371 9.70833 30.6991 9.97754 30.2607C11.4544 27.8558 13.093 25.5608 14.877 23.3896L15.6504 22.4668C15.9845 22.076 15.9403 21.4888 15.5527 21.1523C17.2994 19.1699 19.1699 17.2994 21.1523 15.5527C21.4676 15.9158 22.003 15.9775 22.3906 15.709L22.4668 15.6504C24.9071 13.5642 27.5122 11.6654 30.2607 9.97754C30.6991 9.70833 30.8371 9.13676 30.5713 8.69727C32.8344 7.35382 35.1901 6.15015 37.626 5.09668C37.8137 5.53974 38.304 5.76392 38.7559 5.62793L38.8457 5.5957C41.7921 4.3739 44.854 3.37443 48.0107 2.61914C48.5109 2.49948 48.8199 1.99919 48.7041 1.49902C51.2566 0.928896 53.8683 0.5161 56.5283 0.269531C56.5694 0.748728 56.9649 1.11403 57.4365 1.125L57.5322 1.12207C59.1239 0.998428 60.7327 0.935554 62.3564 0.935547C63.9804 0.935547 65.5898 0.998403 67.1816 1.12207C67.6941 1.16183 68.1407 0.780653 68.1846 0.269531Z" stroke="white" stroke-width="1.8707" stroke-linecap="round" stroke-linejoin="round" stroke-dasharray="9.67 9.67"/>
<path d="M66.6543 13.6074C68.8095 13.8024 70.9241 14.1384 72.9893 14.6045C72.9121 14.9379 73.1187 15.2718 73.4521 15.3516C75.928 15.9439 78.3298 16.7273 80.6406 17.6855C80.9565 17.8164 81.3171 17.6681 81.4512 17.3545C83.4264 18.2034 85.3337 19.1794 87.1641 20.2715C86.9891 20.5641 87.0817 20.9442 87.373 21.123C89.5285 22.4467 91.5717 23.9353 93.4854 25.5713C93.7455 25.7937 94.1349 25.7632 94.3594 25.5059C95.9689 26.9175 97.4839 28.4335 98.8955 30.043C98.6387 30.2675 98.6098 30.657 98.832 30.917C100.468 32.8307 101.957 34.8748 103.28 37.0303C103.459 37.3214 103.838 37.4124 104.131 37.2373C105.223 39.0674 106.199 40.9743 107.048 42.9492C106.734 43.0832 106.586 43.4465 106.717 43.7627C107.675 46.0735 108.458 48.4754 109.051 50.9512C109.131 51.2844 109.465 51.4893 109.798 51.4121C110.264 53.4772 110.599 55.5919 110.794 57.7471C110.453 57.7762 110.199 58.0762 110.226 58.418C110.323 59.6662 110.372 60.9278 110.372 62.2012C110.372 63.4747 110.323 64.7369 110.226 65.9854C110.199 66.327 110.453 66.6251 110.794 66.6543C110.599 68.8095 110.264 70.9241 109.798 72.9893C109.465 72.9123 109.131 73.1188 109.051 73.4521C108.458 75.9279 107.675 78.3299 106.717 80.6406C106.586 80.9565 106.734 81.3181 107.048 81.4521C106.199 83.4271 105.223 85.3339 104.131 87.1641C103.838 86.9893 103.459 87.0818 103.28 87.373C102.122 89.259 100.837 91.0591 99.4385 92.7617L98.832 93.4854C98.6098 93.7453 98.6389 94.1348 98.8955 94.3594C97.484 95.9687 95.9687 97.484 94.3594 98.8955C94.1631 98.6712 93.8415 98.6206 93.5898 98.7598L93.4854 98.832C91.5717 100.468 89.5284 101.957 87.373 103.28C87.0818 103.459 86.9893 103.838 87.1641 104.131C85.3339 105.223 83.4271 106.199 81.4521 107.048C81.3181 106.734 80.9565 106.586 80.6406 106.717C78.3298 107.675 75.9279 108.458 73.4521 109.051C73.1188 109.131 72.9123 109.465 72.9893 109.798C70.9241 110.264 68.8095 110.599 66.6543 110.794C66.6251 110.453 66.327 110.199 65.9854 110.226C64.7369 110.323 63.4747 110.372 62.2012 110.372C60.9278 110.372 59.6662 110.323 58.418 110.226C58.0762 110.199 57.7762 110.453 57.7471 110.794C55.5919 110.599 53.4772 110.264 51.4121 109.798C51.4893 109.465 51.2844 109.131 50.9512 109.051L50.0254 108.82C47.8757 108.26 45.7845 107.555 43.7627 106.717L43.6416 106.681C43.3588 106.626 43.0663 106.773 42.9492 107.048C40.9743 106.199 39.0674 105.223 37.2373 104.131C37.4124 103.838 37.3214 103.459 37.0303 103.28L36.2266 102.776C34.3653 101.582 32.5915 100.264 30.917 98.832L30.8135 98.7598C30.5617 98.6202 30.2393 98.6709 30.043 98.8955C28.4335 97.4839 26.9175 95.9688 25.5059 94.3594C25.7632 94.1349 25.7937 93.7455 25.5713 93.4854L24.9648 92.7617C23.5658 91.0591 22.2812 89.2591 21.123 87.373L21.0459 87.2725C20.8493 87.0626 20.5272 87.0112 20.2715 87.1641C19.1794 85.3337 18.2034 83.4264 17.3545 81.4512C17.6681 81.3171 17.8164 80.9565 17.6855 80.6406L17.335 79.7695C16.5349 77.7279 15.8699 75.6185 15.3516 73.4521L15.3096 73.333C15.1876 73.0715 14.8961 72.9217 14.6045 72.9893C14.1384 70.9241 13.8024 68.8095 13.6074 66.6543C13.9489 66.6258 14.2033 66.3274 14.1768 65.9854L14.1133 65.0459C14.0768 64.4185 14.0523 63.7879 14.04 63.1543L14.0312 62.2012C14.0313 61.2461 14.0585 60.2976 14.1133 59.3564L14.1768 58.418C14.2033 58.0758 13.949 57.7755 13.6074 57.7471C13.8025 55.5919 14.1384 53.4772 14.6045 51.4121C14.896 51.4797 15.1874 51.3316 15.3096 51.0703L15.3516 50.9512C15.8699 48.7846 16.5348 46.6746 17.335 44.6328L17.6855 43.7627C17.8166 43.4466 17.6685 43.0842 17.3545 42.9502C18.2033 40.9754 19.1787 39.0683 20.2705 37.2383C20.5265 37.3919 20.8491 37.3402 21.0459 37.1299L21.123 37.0303C22.2813 35.1441 23.5657 33.3434 24.9648 31.6406L25.5713 30.917C25.7937 30.6568 25.7633 30.2674 25.5059 30.043C26.9176 28.4333 28.4333 26.9176 30.043 25.5059C30.2392 25.731 30.5614 25.7831 30.8135 25.6436L30.917 25.5713C32.5915 24.1398 34.3653 22.821 36.2266 21.627L37.0303 21.123C37.3218 20.9439 37.4139 20.5632 37.2383 20.2705C39.0683 19.1787 40.9754 18.2033 42.9502 17.3545C43.0673 17.629 43.3589 17.7774 43.6416 17.7227L43.7627 17.6855C45.7845 16.8472 47.8757 16.1429 50.0254 15.583L50.9512 15.3516C51.2845 15.2716 51.4895 14.9379 51.4121 14.6045C53.4772 14.1384 55.5919 13.8025 57.7471 13.6074C57.7755 13.949 58.0758 14.2033 58.418 14.1768C59.6662 14.0798 60.9279 14.0313 62.2012 14.0312C63.4747 14.0312 64.7369 14.0798 65.9854 14.1768C66.3274 14.2033 66.6258 13.9489 66.6543 13.6074Z" stroke="white" stroke-width="1.24713" stroke-linecap="round" stroke-linejoin="round" stroke-dasharray="7.56 7.56"/>
<path d="M62.3564 30.8672C63.7507 30.8672 65.1237 30.9582 66.4697 31.1338C66.6393 31.1559 66.7944 31.0371 66.8184 30.8682C69.4054 31.2314 71.892 31.9059 74.2402 32.8525C74.1767 33.0107 74.2524 33.1912 74.4102 33.2568C76.9701 34.3184 79.3604 35.7078 81.5273 37.373C81.6632 37.4774 81.8566 37.4521 81.9619 37.3174C83.9846 38.9033 85.8105 40.7284 87.3965 42.751C87.2614 42.8562 87.2363 43.0515 87.3408 43.1875C89.006 45.3544 90.3955 47.7439 91.457 50.3037C91.5225 50.4616 91.7031 50.5371 91.8613 50.4736C92.808 52.8218 93.4814 55.3085 93.8447 57.8955C93.6765 57.92 93.5581 58.075 93.5801 58.2441C93.7557 59.5902 93.8467 60.9632 93.8467 62.3574C93.8467 63.7516 93.7557 65.1246 93.5801 66.4707C93.558 66.6399 93.6765 66.7948 93.8447 66.8193C93.4815 69.4065 92.8071 71.8929 91.8604 74.2412C91.7024 74.1785 91.5225 74.2537 91.457 74.4111C90.4619 76.811 89.179 79.0617 87.6504 81.1191L87.3408 81.5283C87.2367 81.6641 87.262 81.8576 87.3965 81.9629C85.8104 83.9858 83.9848 85.8114 81.9619 87.3975C81.8699 87.2799 81.7106 87.2456 81.5811 87.3086L81.5273 87.3418C79.3604 89.007 76.9701 90.3965 74.4102 91.458C74.2527 91.5234 74.1775 91.7034 74.2402 91.8613C71.892 92.8081 69.4055 93.4824 66.8184 93.8457C66.7938 93.6775 66.6389 93.559 66.4697 93.5811C65.1237 93.7566 63.7507 93.8477 62.3564 93.8477C60.9622 93.8476 59.5892 93.7566 58.2432 93.5811C58.0741 93.5591 57.919 93.6775 57.8945 93.8457C55.3075 93.4824 52.8208 92.809 50.4727 91.8623C50.5361 91.7041 50.4606 91.5235 50.3027 91.458L49.8242 91.2559C47.4446 90.2225 45.218 88.9028 43.1865 87.3418L43.1328 87.3086C43.003 87.2452 42.8421 87.2792 42.75 87.3975C40.7274 85.8115 38.9023 83.9856 37.3164 81.9629C37.4511 81.8576 37.4764 81.6642 37.3721 81.5283L37.0635 81.1191C35.5348 79.0617 34.2511 76.8111 33.2559 74.4111L33.2256 74.3555C33.1449 74.2367 32.9897 74.1857 32.8516 74.2412C31.9049 71.893 31.2304 69.4064 30.8672 66.8193C31.0361 66.7954 31.1549 66.6403 31.1328 66.4707L31.0713 65.9648C30.9363 64.7812 30.8662 63.5774 30.8662 62.3574C30.8662 61.1374 30.9363 59.9337 31.0713 58.75L31.1328 58.2441C31.1548 58.0745 31.0361 57.9184 30.8672 57.8945C31.2305 55.3076 31.9048 52.8208 32.8516 50.4727C32.9899 50.5285 33.1448 50.4785 33.2256 50.3594L33.2559 50.3037C34.2511 47.9037 35.5347 45.6532 37.0635 43.5957L37.3721 43.1875C37.4766 43.0514 37.4517 42.8562 37.3164 42.751C38.9022 40.7286 40.7276 38.9032 42.75 37.3174C42.8421 37.4358 43.0029 37.4698 43.1328 37.4062L43.1865 37.373C45.2178 35.8121 47.4448 34.4933 49.8242 33.46L50.3027 33.2568C50.4608 33.1912 50.5355 33.0109 50.4717 32.8525C52.8198 31.9058 55.3066 31.2315 57.8936 30.8682C57.9144 31.0161 58.0369 31.1256 58.1807 31.1357L58.2432 31.1338C59.5892 30.9582 60.9622 30.8672 62.3564 30.8672Z" stroke="white" stroke-width="0.623567" stroke-linecap="round" stroke-linejoin="round" stroke-dasharray="7.56 7.56"/>
<g filter="url(#filter0_d_40_2137)">
<ellipse cx="62.2005" cy="30.3987" rx="3.27373" ry="3.27373" fill="#F1A300"/>
</g>
<g filter="url(#filter1_d_40_2137)">
<ellipse cx="92.4436" cy="50.6653" rx="3.27373" ry="3.27373" fill="#F1A300"/>
</g>
<g filter="url(#filter2_d_40_2137)">
<ellipse cx="33.5164" cy="22.2928" rx="3.89729" ry="3.89729" fill="#F1A300"/>
</g>
<g filter="url(#filter3_d_40_2137)">
<ellipse cx="15.745" cy="67.8123" rx="3.89729" ry="3.89729" fill="#F1A300"/>
</g>
<g filter="url(#filter4_d_40_2137)">
<ellipse cx="99.1467" cy="13.095" rx="4.98854" ry="4.98854" fill="#F1A300"/>
</g>
<g filter="url(#filter5_d_40_2137)">
<ellipse cx="120.972" cy="80.1282" rx="4.98854" ry="4.98854" fill="#F1A300"/>
</g>
<g filter="url(#filter6_d_40_2137)">
<ellipse cx="24.6311" cy="110.995" rx="4.98854" ry="4.98854" fill="#F1A300"/>
</g>
<defs>
<filter id="filter0_d_40_2137" x="52.6911" y="20.8893" width="21.5135" height="21.5135" filterUnits="userSpaceOnUse" color-interpolation-filters="sRGB">
<feFlood flood-opacity="0" result="BackgroundImageFix"/>
<feColorMatrix in="SourceAlpha" type="matrix" values="0 0 0 0 0 0 0 0 0 0 0 0 0 0 0 0 0 0 127 0" result="hardAlpha"/>
<feOffset dx="1.24713" dy="1.24713"/>
<feGaussianBlur stdDeviation="3.7414"/>
<feComposite in2="hardAlpha" operator="out"/>
<feColorMatrix type="matrix" values="0 0 0 0 0.927885 0 0 0 0 0.723051 0 0 0 0 0.281042 0 0 0 0.8 0"/>
<feBlend mode="normal" in2="BackgroundImageFix" result="effect1_dropShadow_40_2137"/>
<feBlend mode="normal" in="SourceGraphic" in2="effect1_dropShadow_40_2137" result="shape"/>
</filter>
<filter id="filter1_d_40_2137" x="82.9343" y="41.1559" width="21.5135" height="21.5135" filterUnits="userSpaceOnUse" color-interpolation-filters="sRGB">
<feFlood flood-opacity="0" result="BackgroundImageFix"/>
<feColorMatrix in="SourceAlpha" type="matrix" values="0 0 0 0 0 0 0 0 0 0 0 0 0 0 0 0 0 0 127 0" result="hardAlpha"/>
<feOffset dx="1.24713" dy="1.24713"/>
<feGaussianBlur stdDeviation="3.7414"/>
<feComposite in2="hardAlpha" operator="out"/>
<feColorMatrix type="matrix" values="0 0 0 0 0.927885 0 0 0 0 0.723051 0 0 0 0 0.281042 0 0 0 0.8 0"/>
<feBlend mode="normal" in2="BackgroundImageFix" result="effect1_dropShadow_40_2137"/>
<feBlend mode="normal" in="SourceGraphic" in2="effect1_dropShadow_40_2137" result="shape"/>
</filter>
<filter id="filter2_d_40_2137" x="23.3835" y="12.1598" width="22.7605" height="22.7605" filterUnits="userSpaceOnUse" color-interpolation-filters="sRGB">
<feFlood flood-opacity="0" result="BackgroundImageFix"/>
<feColorMatrix in="SourceAlpha" type="matrix" values="0 0 0 0 0 0 0 0 0 0 0 0 0 0 0 0 0 0 127 0" result="hardAlpha"/>
<feOffset dx="1.24713" dy="1.24713"/>
<feGaussianBlur stdDeviation="3.7414"/>
<feComposite in2="hardAlpha" operator="out"/>
<feColorMatrix type="matrix" values="0 0 0 0 0.927885 0 0 0 0 0.723051 0 0 0 0 0.281042 0 0 0 0.8 0"/>
<feBlend mode="normal" in2="BackgroundImageFix" result="effect1_dropShadow_40_2137"/>
<feBlend mode="normal" in="SourceGraphic" in2="effect1_dropShadow_40_2137" result="shape"/>
</filter>
<filter id="filter3_d_40_2137" x="5.61199" y="57.6794" width="22.7605" height="22.7605" filterUnits="userSpaceOnUse" color-interpolation-filters="sRGB">
<feFlood flood-opacity="0" result="BackgroundImageFix"/>
<feColorMatrix in="SourceAlpha" type="matrix" values="0 0 0 0 0 0 0 0 0 0 0 0 0 0 0 0 0 0 127 0" result="hardAlpha"/>
<feOffset dx="1.24713" dy="1.24713"/>
<feGaussianBlur stdDeviation="3.7414"/>
<feComposite in2="hardAlpha" operator="out"/>
<feColorMatrix type="matrix" values="0 0 0 0 0.927885 0 0 0 0 0.723051 0 0 0 0 0.281042 0 0 0 0.8 0"/>
<feBlend mode="normal" in2="BackgroundImageFix" result="effect1_dropShadow_40_2137"/>
<feBlend mode="normal" in="SourceGraphic" in2="effect1_dropShadow_40_2137" result="shape"/>
</filter>
<filter id="filter4_d_40_2137" x="87.9225" y="1.87077" width="24.9431" height="24.9431" filterUnits="userSpaceOnUse" color-interpolation-filters="sRGB">
<feFlood flood-opacity="0" result="BackgroundImageFix"/>
<feColorMatrix in="SourceAlpha" type="matrix" values="0 0 0 0 0 0 0 0 0 0 0 0 0 0 0 0 0 0 127 0" result="hardAlpha"/>
<feOffset dx="1.24713" dy="1.24713"/>
<feGaussianBlur stdDeviation="3.7414"/>
<feComposite in2="hardAlpha" operator="out"/>
<feColorMatrix type="matrix" values="0 0 0 0 0.927885 0 0 0 0 0.723051 0 0 0 0 0.281042 0 0 0 0.8 0"/>
<feBlend mode="normal" in2="BackgroundImageFix" result="effect1_dropShadow_40_2137"/>
<feBlend mode="normal" in="SourceGraphic" in2="effect1_dropShadow_40_2137" result="shape"/>
</filter>
<filter id="filter5_d_40_2137" x="109.748" y="68.904" width="24.9431" height="24.9431" filterUnits="userSpaceOnUse" color-interpolation-filters="sRGB">
<feFlood flood-opacity="0" result="BackgroundImageFix"/>
<feColorMatrix in="SourceAlpha" type="matrix" values="0 0 0 0 0 0 0 0 0 0 0 0 0 0 0 0 0 0 127 0" result="hardAlpha"/>
<feOffset dx="1.24713" dy="1.24713"/>
<feGaussianBlur stdDeviation="3.7414"/>
<feComposite in2="hardAlpha" operator="out"/>
<feColorMatrix type="matrix" values="0 0 0 0 0.927885 0 0 0 0 0.723051 0 0 0 0 0.281042 0 0 0 0.8 0"/>
<feBlend mode="normal" in2="BackgroundImageFix" result="effect1_dropShadow_40_2137"/>
<feBlend mode="normal" in="SourceGraphic" in2="effect1_dropShadow_40_2137" result="shape"/>
</filter>
<filter id="filter6_d_40_2137" x="13.4069" y="99.7712" width="24.9431" height="24.9431" filterUnits="userSpaceOnUse" color-interpolation-filters="sRGB">
<feFlood flood-opacity="0" result="BackgroundImageFix"/>
<feColorMatrix in="SourceAlpha" type="matrix" values="0 0 0 0 0 0 0 0 0 0 0 0 0 0 0 0 0 0 127 0" result="hardAlpha"/>
<feOffset dx="1.24713" dy="1.24713"/>
<feGaussianBlur stdDeviation="3.7414"/>
<feComposite in2="hardAlpha" operator="out"/>
<feColorMatrix type="matrix" values="0 0 0 0 0.927885 0 0 0 0 0.723051 0 0 0 0 0.281042 0 0 0 0.8 0"/>
<feBlend mode="normal" in2="BackgroundImageFix" result="effect1_dropShadow_40_2137"/>
<feBlend mode="normal" in="SourceGraphic" in2="effect1_dropShadow_40_2137" result="shape"/>
</filter>
</defs>
</svg>
